<svg width="56" height="58" viewBox="0 0 56 58" fill="none" xmlns="http://www.w3.org/2000/svg">
<path d="M45.5193 54.696C42.3423 54.696 44.3512 55.1633 44.3512 52.3601C44.3512 50.0943 41.1859 46.4499 40.5434 45.7378L40.5437 45.7374C40.3224 45.4938 40.0084 45.355 39.6795 45.355C39.3502 45.355 39.0366 45.4938 38.8152 45.7374C38.1727 46.45 35.0074 50.094 35.0074 52.3598C35.0109 53.1833 35.237 53.9905 35.6617 54.696H32.0173C32.442 53.9905 32.6681 53.1834 32.6716 52.3598C32.6716 50.0939 29.5063 46.4496 28.8638 45.7374C28.6424 45.4938 28.3288 45.355 27.9995 45.355C27.6703 45.355 27.3566 45.4938 27.1353 45.7374C26.4927 46.45 23.3275 50.094 23.3275 52.3598C23.331 53.1833 23.557 53.9905 23.9817 54.696H20.3374C20.7621 53.9905 20.9881 53.1834 20.9916 52.3598C20.9916 50.0939 17.8264 46.4496 17.1838 45.7374C16.9625 45.4938 16.6488 45.355 16.3196 45.355C15.9907 45.355 15.6767 45.4938 15.4553 45.7374C14.8132 46.45 11.6479 50.094 11.6479 52.3598C11.6479 55.1512 13.6451 54.6956 10.4798 54.6956V54.696C9.8349 54.696 9.31165 55.2189 9.31165 55.8637C9.31165 56.509 9.8349 57.0318 10.4798 57.0318H45.5195C46.1644 57.0318 46.6876 56.509 46.6876 55.8637C46.6876 55.2188 46.1644 54.696 45.5195 54.696H45.5193ZM37.3432 52.3601C37.3432 51.6128 38.441 49.8721 39.6791 48.3306C40.9172 49.8839 42.0149 51.6359 42.0149 52.3601L42.0153 52.3598C42.0153 53.1943 41.5699 53.9655 40.8472 54.3827C40.1245 54.8 39.2341 54.8 38.5113 54.3827C37.7886 53.9655 37.3432 53.1943 37.3432 52.3598L37.3432 52.3601ZM25.664 52.3598C25.664 51.6124 26.7617 49.8717 27.9998 48.3302C29.2379 49.8835 30.3357 51.6355 30.3357 52.3598C30.3357 53.1943 29.8907 53.9655 29.168 54.3827C28.4453 54.8 27.5544 54.8 26.8317 54.3827C26.109 53.9655 25.664 53.1943 25.664 52.3598ZM13.9838 52.3598C13.9838 51.6124 15.0815 49.8717 16.3196 48.3302C17.5577 49.8835 18.6554 51.6355 18.6554 52.3598H18.6558C18.6558 53.1943 18.2104 53.9655 17.4877 54.3827C16.765 54.8 15.8746 54.8 15.1519 54.3827C14.4292 53.9655 13.9837 53.1943 13.9837 52.3598H13.9838Z" fill="#5A76A6"/>
<path d="M51.2548 17.3196H4.74508C3.30635 17.3329 1.94971 17.9918 1.05069 19.1154C0.151234 20.2386 -0.19522 21.7063 0.106653 23.1133C0.408555 24.52 1.32684 25.7163 2.60789 26.3717L6.97614 28.5558V32.5037C6.97614 35.2917 8.08359 37.9654 10.055 39.9367C12.0265 41.9081 14.7001 43.0156 17.4881 43.0156H38.5119C41.2999 43.0156 43.9736 41.9082 45.9449 39.9367C47.9162 37.9653 49.0238 35.2917 49.0238 32.5037V28.5558L53.3921 26.3717C54.6732 25.7163 55.5914 24.52 55.8933 23.1133C56.1952 21.7063 55.8487 20.2386 54.9493 19.1154C54.0502 17.9918 52.6936 17.3329 51.2549 17.3196H51.2548ZM3.65885 24.3275C2.96001 24.019 2.44618 23.4011 2.26978 22.6576C2.0938 21.9142 2.27603 21.1313 2.76174 20.5419C3.24784 19.9522 3.98193 19.6245 4.74489 19.6558H6.97592V25.9395L3.65885 24.3275ZM46.6876 32.5036C46.6876 34.672 45.8261 36.7514 44.2927 38.2847C42.7593 39.8181 40.68 40.6797 38.5116 40.6797H17.4877C15.3193 40.6797 13.2399 39.8181 11.7066 38.2847C10.1732 36.7514 9.31166 34.672 9.31166 32.5036V19.656H46.688L46.6876 32.5036ZM52.3405 24.3275L49.0235 25.9396V19.6558H51.2545C52.0175 19.6245 52.7515 19.9523 53.2377 20.542C53.7234 21.1313 53.9056 21.9142 53.7296 22.6577C53.5532 23.4011 53.0394 24.019 52.3405 24.3276L52.3405 24.3275Z" fill="#5A76A6"/>
<path d="M27.2526 10.9662C24.8581 12.9633 25.5119 14.984 26.8318 14.984C27.1415 14.984 27.4388 14.8608 27.6578 14.6418C27.8768 14.4228 27.9999 14.1256 27.9999 13.8159C27.9999 12.7413 30.3358 12.4026 30.3358 9.92627C30.3358 6.80794 26.3879 6.93658 28.7473 4.97416C31.107 3.01213 30.4993 0.968018 29.1681 0.968018C28.5228 0.968018 28 1.49088 28 2.13614C28 3.21076 25.6641 3.54944 25.6641 6.02575C25.6641 8.50206 28 8.85236 28 9.92667C28 10.3119 27.813 10.4988 27.2526 10.9662H27.2526Z" fill="#5A76A6"/>
<path d="M17.908 10.9662C15.5139 12.9633 16.1677 14.984 17.4876 14.984C17.7974 14.984 18.0946 14.8608 18.3136 14.6418C18.5326 14.4228 18.6557 14.1256 18.6557 13.8159C18.6557 12.7413 20.9916 12.4026 20.9916 9.92627C20.9916 6.80794 17.0437 6.93658 19.4031 4.97416C21.7624 3.01213 21.1551 0.968018 19.8235 0.968018C19.1786 0.968018 18.6558 1.49088 18.6558 2.13614C18.6558 3.21076 16.3199 3.54944 16.3199 6.02575C16.3199 8.50206 18.6558 8.85236 18.6558 9.92667C18.6558 10.3119 18.4688 10.4988 17.908 10.9662H17.908Z" fill="#5A76A6"/>
<path d="M36.5963 10.9662C34.2018 12.9633 34.856 14.984 36.1759 14.984C36.4856 14.984 36.7824 14.8608 37.0018 14.6418C37.2208 14.4228 37.3436 14.1256 37.3436 13.8159C37.3436 12.7413 39.6795 12.4026 39.6795 9.92627C39.6799 6.80794 35.732 6.93658 38.0914 4.97416C40.4506 3.01213 39.8434 0.968018 38.5118 0.968018C37.8669 0.968018 37.3436 1.49088 37.3436 2.13614C37.3436 3.21076 35.0078 3.54944 35.0078 6.02575C35.0078 8.50206 37.3436 8.85236 37.3436 9.92667C37.3436 10.3119 37.1567 10.4988 36.5963 10.9662H36.5963Z" fill="#5A76A6"/>
</svg>
