<svg width="55" height="56" viewBox="0 0 55 56" fill="none" xmlns="http://www.w3.org/2000/svg">
<path d="M51.5619 24.5615C49.9651 24.5615 48.6308 25.6615 48.2476 27.1405H44.6432C44.4395 23.0507 42.8067 19.3401 40.2255 16.4891L42.7779 13.9378C43.2996 14.2462 43.8924 14.4235 44.5147 14.4235C45.4324 14.4235 46.2945 14.0659 46.9433 13.4179C48.283 12.0782 48.2837 9.89715 46.9448 8.55475C45.6473 7.25605 43.3845 7.25537 42.0816 8.55551C40.9541 9.68459 40.7891 11.4053 41.5625 12.7224L39.0101 15.2748C36.1596 12.694 32.4489 11.0616 28.3587 10.8578L28.3591 7.25378C29.8381 6.86974 30.9372 5.53502 30.9372 3.93825C30.9372 2.0426 29.3958 0.500732 27.4997 0.500732C25.6041 0.500732 24.0622 2.04221 24.0622 3.93825C24.0622 5.53502 25.1613 6.86936 26.6404 7.25378V10.8571C22.5499 11.0608 18.8399 12.6936 15.989 15.2741L13.4366 12.7228C14.21 11.4053 14.045 9.68498 12.9167 8.55591C12.2672 7.90715 11.4044 7.54881 10.4855 7.54881C9.56782 7.54881 8.7042 7.90637 8.05431 8.55591C6.71456 9.89634 6.71456 12.0774 8.05508 13.4171C8.70383 14.0659 9.5667 14.4234 10.4855 14.4234C11.1086 14.4234 11.6997 14.2466 12.2223 13.9389L14.7736 16.4902C12.1921 19.3407 10.5604 23.0515 10.356 27.1416H6.75265C6.36861 25.663 5.03507 24.5623 3.43908 24.5623C1.54423 24.5623 0.000785717 26.1049 0 28.0014C0.000767253 29.8962 1.54423 31.4369 3.43908 31.4369C5.03507 31.4369 6.36863 30.3378 6.75265 28.8588H10.356C10.5589 32.9485 12.1925 36.6592 14.773 39.5102L12.2148 42.0695C10.9061 41.3314 9.14251 41.4937 8.0537 42.5825C6.71395 43.9222 6.71395 46.1033 8.05447 47.4464C8.70399 48.0944 9.56678 48.4508 10.4837 48.4508C11.4022 48.4508 12.2661 48.0933 12.9157 47.4437C13.5645 46.795 13.922 45.9314 13.922 45.0125C13.9212 44.3895 13.7451 43.7991 13.4375 43.2765L15.988 40.7252C18.8385 43.3067 22.5499 44.9395 26.6404 45.1428V48.7461C25.1613 49.1302 24.0622 50.4649 24.0622 52.0617C24.0622 53.9573 25.6037 55.4992 27.4997 55.4992C29.3954 55.4992 30.9373 53.9577 30.9373 52.0617C30.9373 50.4649 29.8381 49.1306 28.3591 48.7461L28.3595 45.1432C32.4499 44.9395 36.1599 43.3067 39.0109 40.7262L41.5633 43.2776C40.7898 44.5942 40.9548 46.3153 42.0839 47.4444C42.7327 48.0932 43.5962 48.4507 44.5143 48.4507C45.432 48.4507 46.2956 48.0932 46.9455 47.4444C48.286 46.1047 48.286 43.9229 46.9455 42.5832C46.296 41.9344 45.4332 41.5769 44.5151 41.5769C43.8913 41.5769 43.3001 41.7537 42.7776 42.0626L40.2263 39.5112C42.8078 36.66 44.4395 32.9493 44.644 28.8599H48.2473C48.6321 30.3381 49.966 31.4372 51.5616 31.438C53.4565 31.438 54.9991 29.8965 54.9999 28.0005C55.0007 26.1048 53.458 24.5622 51.5624 24.5622L51.5619 24.5615ZM43.2984 9.76944C43.6234 9.44448 44.0554 9.2657 44.5154 9.2657C44.9742 9.2657 45.4058 9.44448 45.7296 9.76829C46.3991 10.4393 46.3991 11.5307 45.7289 12.2011C45.0809 12.8506 43.9483 12.8471 43.2996 12.2011C42.629 11.5304 42.6282 10.439 43.2985 9.76947L43.2984 9.76944ZM25.7808 3.93794C25.7808 2.98994 26.5516 2.21918 27.4996 2.21918C28.4465 2.21918 29.2184 2.98994 29.2184 3.93794C29.2184 4.88594 28.4468 5.6567 27.4996 5.6567C26.5516 5.6567 25.7808 4.88594 25.7808 3.93794ZM9.26998 12.2006C8.60051 11.5304 8.59974 10.4397 9.26921 9.76944C9.59416 9.44563 10.0262 9.2657 10.4854 9.2657C10.945 9.2657 11.3766 9.44448 11.7016 9.76944C12.3711 10.4397 12.3703 11.5292 11.7008 12.2006C11.0505 12.8494 9.9199 12.8494 9.27001 12.2006H9.26998ZM3.43848 29.7182C2.48971 29.7182 1.71894 28.9482 1.71815 28.001C1.71892 27.0523 2.48968 26.2807 3.43848 26.2807C4.38456 26.2807 5.15567 27.0534 5.15645 28.0002C5.15645 28.9482 4.38569 29.7182 3.43848 29.7182ZM11.7012 46.2291C11.0524 46.8778 9.91643 46.8771 9.26998 46.2306C8.59974 45.5596 8.59974 44.4674 9.26921 43.7978C9.59301 43.474 10.0246 43.2952 10.4834 43.2952C10.9431 43.2952 11.3754 43.474 11.7004 43.799C12.0254 44.1228 12.2041 44.5544 12.2041 45.014C12.2038 45.4736 12.0254 45.9052 11.7012 46.229V46.2291ZM29.2188 52.0625C29.2188 53.0105 28.4472 53.7813 27.5 53.7813C26.552 53.7813 25.7812 53.0105 25.7812 52.0625C25.7812 51.1145 26.552 50.3438 27.5 50.3438C28.4468 50.3438 29.2188 51.1145 29.2188 52.0625ZM45.7306 43.7991C46.4001 44.4693 46.4001 45.56 45.7306 46.2303C45.0818 46.879 43.9493 46.879 43.2994 46.2303C42.6299 45.56 42.6299 44.4704 43.2994 43.7998C43.6244 43.4749 44.0556 43.2961 44.5156 43.2961C44.9744 43.2965 45.4057 43.4749 45.7306 43.7991V43.7991ZM27.5 43.4691C18.9718 43.4691 12.0331 36.5315 12.0312 28.0032C12.0312 28.0025 12.032 28.0017 12.032 27.9998C12.032 27.9983 12.0312 27.9983 12.0312 27.9963C12.0339 19.4689 18.9714 12.5315 27.5 12.5315C36.029 12.5315 42.9688 19.4705 42.9688 28.0003C42.9688 36.5292 36.0294 43.4691 27.5 43.4691V43.4691ZM51.5616 29.7191L51.5608 30.5784L51.5616 29.7191C50.6136 29.7191 49.8436 28.9483 49.8428 28.0003C49.8428 27.0523 50.6136 26.2815 51.5616 26.2808C52.5096 26.2808 53.2811 27.0523 53.2811 27.9995C53.2804 28.9479 52.5085 29.7191 51.5616 29.7191Z" fill="#5A76A6"/>
</svg>
