<svg width="52" height="46" viewBox="0 0 52 46" fill="none" xmlns="http://www.w3.org/2000/svg">
<path d="M51.0366 15.0345C50.7382 14.6734 50.4129 14.3182 50.0411 13.9482C49.2101 13.1239 47.9442 12.9446 46.8999 13.4838C46.2014 13.3485 45.786 12.9313 45.6662 12.2416C45.5917 11.8137 45.5578 11.366 45.522 10.8924C45.5017 10.6286 45.4818 10.3649 45.4548 10.1019C45.4062 9.62316 45.2737 8.91944 44.6928 8.34212C43.9662 7.62029 43.2422 6.89629 42.5189 6.17224C41.8951 5.54852 41.2718 4.92479 40.647 4.30291C38.4081 2.0743 35.634 0.700038 32.4026 0.217905C29.4348 -0.224343 26.3221 0.00287171 22.6079 0.933466C22.0668 1.06883 21.6466 1.60587 21.6511 2.15986C21.6548 2.49957 21.671 2.83853 21.6872 3.1838L21.7027 3.51723C21.726 4.05132 22.1439 4.48395 22.6768 4.52569L22.7812 4.53454C22.8686 4.54229 22.9475 4.54893 23.0283 4.55225C24.2049 4.6013 25.3793 4.80417 26.6194 5.17338C28.8089 5.82513 30.5694 6.82251 32.0012 8.22226C32.3007 8.51513 32.487 8.9039 32.4881 9.23658C32.4885 9.50141 32.3719 9.74558 32.1318 9.98312C31.8113 10.3 31.5048 10.6323 31.1942 10.9709C31.0618 11.1147 30.9282 11.2604 30.7918 11.4061L27.8926 14.4119L23.2403 18.9605C20.8687 16.5914 18.5132 14.2422 16.1991 11.9402C16.1438 11.8852 16.1165 11.8495 16.1076 11.8447C16.1098 11.8185 16.1183 11.7573 16.153 11.6418C17.3864 7.47381 15.2722 3.18154 11.2344 1.65828C9.41265 0.971118 7.6267 0.970004 5.77474 1.65422C5.43429 1.78036 5.18201 2.07212 5.10713 2.42732C5.03189 2.78252 5.14438 3.15174 5.40479 3.40443L6.32912 4.29777C7.15607 5.09448 7.93727 5.84728 8.68785 6.6211C8.72031 6.65761 8.76383 6.75646 8.76937 6.7749C8.71404 7.59632 8.6008 8.4432 8.43298 9.29595C8.05528 9.36862 7.6632 9.41768 7.25078 9.46931C6.84911 9.51947 6.44706 9.57037 6.04979 9.64192C5.84619 9.67955 5.83697 9.66811 5.71451 9.5357C4.99304 8.75743 4.25791 8.01461 3.47928 7.22814C3.16908 6.91463 2.85335 6.59594 2.53211 6.26803C2.27097 6.00099 1.8881 5.89144 1.52478 5.98107C1.16183 6.07033 0.873035 6.34402 0.764956 6.70179C0.72512 6.8331 0.68971 6.94302 0.658359 7.03965C0.58459 7.26834 0.531849 7.44059 0.495694 7.6158C-0.0929879 10.4799 0.847577 13.3517 3.01127 15.2977C5.17567 17.2449 8.13306 17.876 10.9219 16.9877C10.9473 16.9796 10.9684 16.9734 10.9857 16.9693C11.0001 16.9826 11.0182 16.9995 11.0399 17.0213C13.4415 19.4439 15.7641 21.7832 18.0266 24.0581L8.72283 33.155C7.73694 34.1181 6.75134 35.0808 5.7713 36.049C4.41583 37.3889 4.33538 39.5644 5.59168 40.8989C6.56473 41.9317 7.45912 42.8456 8.32669 43.6929C8.98213 44.3332 9.83862 44.6818 10.7489 44.6818C10.785 44.6818 10.8215 44.6815 10.8577 44.6804C11.8126 44.6516 12.6924 44.2451 13.3342 43.5366L24.8096 30.8676C26.2802 32.3408 27.7305 33.7926 29.1657 35.2266C29.1919 35.2528 29.2096 35.2731 29.2214 35.2875C29.2174 35.3214 29.2059 35.3834 29.1775 35.4878C28.2786 38.8093 29.1192 41.7382 31.6082 43.9587C33.133 45.318 34.8537 46.0007 36.7462 45.9999C37.5695 45.9999 38.4256 45.8708 39.3123 45.6122C39.5875 45.5318 39.8184 45.3434 39.9523 45.0892C40.0854 44.8358 40.1101 44.5382 40.0205 44.2659L40.0013 44.1988C39.9703 44.0801 39.9058 43.8326 39.686 43.6098C39.1438 43.0583 38.5993 42.5084 38.0552 41.9585L37.0018 40.8925C36.4146 40.2983 35.6149 39.1135 36.8525 37.8591C37.8118 36.8861 38.8376 36.8961 39.8995 37.8901C40.5576 38.5061 41.2122 39.1265 41.8862 39.7642L42.9109 40.7336C43.1694 40.9778 43.5342 41.0759 43.8802 40.994C44.2262 40.9125 44.508 40.662 44.6305 40.3279C44.6614 40.2423 44.692 40.1674 44.7186 40.1003C44.7894 39.9251 44.8628 39.744 44.9056 39.5245C45.4969 36.511 44.6784 33.8741 42.5384 31.8997C40.3132 29.8471 37.5608 29.2341 34.5779 30.1271C34.5078 30.1481 34.4595 30.1595 34.4282 30.1654C34.4127 30.1521 34.392 30.1333 34.3662 30.1071C32.814 28.5472 31.2649 26.9926 29.7216 25.4457L33.9007 20.8322C33.9545 20.7728 34.0051 20.7105 34.0571 20.6459L34.0762 20.6219L37.0628 17.5808C37.0632 17.5804 37.0632 17.5804 37.0635 17.5804L37.4538 17.1913C37.7581 16.8888 38.0576 16.5912 38.3526 16.2895C38.5271 16.1113 38.7783 15.9413 39.3385 16.0265C40.3724 16.1854 41.1765 16.7671 41.8677 17.8567C41.8791 17.8744 41.919 17.9456 41.9581 18.1094C41.9629 18.1285 41.9669 18.1455 41.9699 18.1606C41.7172 18.4539 41.4742 18.9149 41.5228 19.5766C41.5715 20.2424 41.8316 20.861 42.2764 21.3651C42.5888 21.7196 42.9104 22.0648 43.2332 22.3912C43.8116 22.9762 44.5721 23.2709 45.3235 23.2709C46.0247 23.2709 46.7174 23.0142 47.2459 22.4967C48.4281 21.3379 49.6183 20.128 50.8853 18.7972C51.8797 17.7526 51.9443 16.1355 51.0362 15.0345L51.0366 15.0345ZM11.7672 42.1155C11.5145 42.394 11.1689 42.5541 10.7935 42.5652C10.4261 42.5806 10.0709 42.4397 9.80421 42.179C8.95771 41.3524 8.08351 40.459 7.13114 39.4476C6.65496 38.942 6.71176 38.0918 7.25765 37.5525C8.23476 36.5869 9.21772 35.6275 10.2003 34.6674L19.517 25.555C20.8002 26.8445 22.0657 28.1148 23.3147 29.367L11.7672 42.1155ZM32.8674 31.5975C33.7157 32.4492 34.5523 32.3411 35.1848 32.1516C37.4452 31.4751 39.4361 31.9137 41.1041 33.4524C42.4235 34.6701 43.042 36.1284 42.9775 37.8834C42.4272 37.3623 41.8876 36.8521 41.3446 36.345C39.4304 34.5531 37.1331 34.5646 35.3472 36.3719C33.6187 38.1236 33.6792 40.5365 35.4965 42.3775L36.5522 43.4442C36.6942 43.5884 36.8366 43.7323 36.9793 43.8765C35.5124 43.9307 34.2 43.4339 33.0164 42.379C31.1124 40.6805 30.5248 38.6068 31.2198 36.0389C31.4042 35.3569 31.4817 34.5491 30.661 33.7291C29.2018 32.2711 27.7268 30.795 26.2315 29.2967C25.7362 28.8003 25.236 28.2991 24.7358 27.7974C23.5168 26.5747 22.2808 25.3342 21.0285 24.0761C20.5332 23.5785 20.0392 23.0821 19.5384 22.5786C17.273 20.3006 14.947 17.9576 12.5413 15.5314C12.0832 15.0692 11.596 14.8424 11.0435 14.8424C10.8023 14.8424 10.5485 14.8855 10.2796 14.9711C8.21482 15.6299 6.02492 15.1637 4.42489 13.7241C3.11399 12.5449 2.41099 10.905 2.43979 9.18467C3.03585 9.78847 3.60717 10.3739 4.16267 10.9725C4.78123 11.6405 5.52191 11.8865 6.42594 11.722C6.78556 11.6571 7.14887 11.6121 7.5122 11.5667C8.00498 11.5051 8.51471 11.4417 9.02999 11.3314C9.69059 11.1898 10.3364 10.5432 10.4703 9.88953C10.6762 8.88703 10.8137 7.88669 10.8798 6.91591C10.92 6.31469 10.6503 5.60463 10.2081 5.14875C9.58805 4.50954 8.95771 3.89356 8.30155 3.25987C9.03002 3.23036 9.74559 3.35577 10.4877 3.63536C13.4768 4.76327 15.04 7.9468 14.1245 11.0403C13.9309 11.6947 13.8221 12.5585 14.7077 13.4385C17.0152 15.7335 19.3633 18.0757 21.728 20.4378C22.2267 20.9361 22.722 21.43 23.2225 21.9306C24.4106 23.1182 25.606 24.3152 26.8037 25.5146C27.3031 26.0152 27.7992 26.5109 28.3001 27.0129C29.8183 28.5347 31.3413 30.0636 32.8676 31.5977L32.8674 31.5975ZM28.2258 23.9455C27.0588 22.7766 25.8933 21.6096 24.735 20.4517L28.6249 16.6475L31.8434 19.9516L28.2258 23.9455ZM33.289 18.4039L30.1191 15.1499L31.5742 13.6413L34.8223 16.8424L33.289 18.4039ZM49.3544 17.3357C48.1044 18.6488 46.93 19.842 45.7659 20.9836C45.5011 21.2429 45.0393 21.2075 44.7371 20.9018C44.4432 20.6045 44.1496 20.2891 43.8633 19.9649C43.7357 19.8199 43.6642 19.6665 43.6387 19.4702C44.0721 18.9955 44.1979 18.3704 44.0146 17.6116C43.9308 17.2638 43.8132 16.9727 43.6535 16.7216C42.6392 15.1237 41.2958 14.1858 39.6596 13.9341C38.251 13.7176 37.3491 14.2893 36.8412 14.8076C36.666 14.9865 36.4897 15.1639 36.3115 15.3417L33.0262 12.1032C33.221 11.8929 33.4161 11.6867 33.6178 11.4872C34.2644 10.8484 34.6052 10.0683 34.6031 9.23026C34.6005 8.32399 34.1914 7.40521 33.4799 6.70921C31.7965 5.063 29.7493 3.89714 27.2224 3.14505C26.4146 2.90456 25.6094 2.72383 24.8149 2.60321C27.5141 2.06838 29.8577 1.97654 32.0897 2.30924C34.8653 2.72345 37.2417 3.89822 39.1538 5.80144C39.7775 6.42258 40.3997 7.04445 41.022 7.66709C41.7475 8.39261 42.473 9.11849 43.2011 9.84217C43.2594 9.89971 43.3177 9.99708 43.3505 10.3161C43.3752 10.5607 43.394 10.806 43.4125 11.0512C43.4501 11.5544 43.4895 12.0744 43.5814 12.6034C43.8684 14.2518 45.0546 15.3727 46.7549 15.6021C47.1278 15.6516 47.5169 15.5749 47.8224 15.3893C48.0725 15.2362 48.3591 15.2588 48.5494 15.448C48.871 15.7678 49.1506 16.0728 49.404 16.3797C49.6356 16.6604 49.6142 17.0624 49.3542 17.3357L49.3544 17.3357Z" fill="white"/>
</svg>
