<svg width="44" height="52" viewBox="0 0 44 52" fill="none" xmlns="http://www.w3.org/2000/svg">
<path d="M14.8353 34.7275C13.2568 33.6038 11.3666 33.0027 9.42829 33.0132C6.9277 33.0132 4.52978 34.0134 2.76157 35.7939C0.993365 37.5743 0 39.9887 0 42.5066C0 45.0245 0.993343 47.4394 2.76157 49.2198L14.8353 34.7275ZM14.8353 34.7275V34.9119H15.0853L15.237 34.7132C15.1867 34.6748 15.1362 34.637 15.0853 34.5997V13.0142C15.0844 11.6164 15.5045 10.2509 16.2899 9.09854C17.0753 7.9462 18.1895 7.06044 19.4854 6.55865L34.5707 0.482875L14.8353 34.7275ZM40.8159 1.3985L40.8169 1.39917C42.6865 2.66027 43.7914 4.79246 43.7488 7.05998L43.7488 7.05998V7.06467V32.38C43.7488 34.8321 42.7813 37.1832 41.0598 38.9166C39.3383 40.65 37.0042 41.6234 34.5705 41.6234C32.1367 41.6234 29.8022 40.65 28.0807 38.9166C26.3596 37.1832 25.3922 34.8321 25.3922 32.38C25.3922 29.9279 26.3596 27.5769 28.0807 25.8434C29.8022 24.1101 32.1367 23.1366 34.5705 23.1366L34.5718 23.1366C36.5582 23.1259 38.4927 23.7749 40.0757 24.984L40.4775 25.2909L40.4775 24.7853L40.477 14.9376L40.477 14.5674L40.1336 14.7057L18.7632 23.3129L18.6066 23.3759V23.5448V42.5066C18.6066 44.9587 17.6391 47.3102 15.918 49.0436C14.1966 50.7766 11.862 51.75 9.42829 51.75C6.99456 51.75 4.66041 50.7765 2.93896 49.0436C1.21742 47.3102 0.25 44.9587 0.25 42.5066C0.25 40.0545 1.21743 37.7034 2.93896 35.97C4.66042 34.2367 6.99456 33.2632 9.42829 33.2632L9.42965 33.2632C11.416 33.2524 13.3505 33.9019 14.9336 35.1106L15.3353 35.4173V34.9119V13.0142V13.014C15.3344 11.6664 15.7395 10.35 16.4965 9.23934C17.2535 8.12867 18.3272 7.27521 19.5757 6.79178L19.5757 6.7918L19.5788 6.79055L34.6629 0.715256C34.6631 0.715165 34.6633 0.715074 34.6636 0.714984C36.7004 -0.0928106 39.0023 0.16246 40.8159 1.3985ZM13.6061 46.7113L13.6062 46.7112C14.7136 45.5958 15.3355 44.0838 15.3355 42.5072C15.3355 40.931 14.7136 39.4186 13.6062 38.3035C12.4983 37.188 10.9959 36.5611 9.42851 36.5611C7.86153 36.5611 6.35869 37.188 5.25123 38.3036C4.14343 39.4186 3.52153 40.931 3.52153 42.5072C3.52153 44.0839 4.14348 45.5958 5.25127 46.7113L5.42865 46.5351L5.25127 46.7113C6.35873 47.8263 7.86153 48.4532 9.42851 48.4532C10.9959 48.4532 12.4983 47.8263 13.6061 46.7113ZM18.6068 13.0142V13.0147L18.6074 19.4449L18.6074 19.8151L18.9508 19.6768L40.3212 11.0696L40.4778 11.0065V10.8377L40.4779 6.86313L40.4778 6.85799C40.4551 5.75647 39.8986 4.73542 38.9861 4.12504C38.0635 3.47677 36.8769 3.34284 35.8342 3.77079C35.8339 3.77091 35.8336 3.77103 35.8333 3.77115L20.7505 9.84594C20.7504 9.84597 20.7503 9.846 20.7502 9.84604C20.1191 10.0977 19.5772 10.5341 19.1953 11.0992C18.8128 11.664 18.6082 12.331 18.6068 13.0142ZM30.3936 36.5853L30.3937 36.5854C31.5016 37.7004 33.0039 38.3273 34.5713 38.3273C36.1383 38.3273 37.6411 37.7004 38.7486 36.5853C39.8564 35.4699 40.4783 33.9579 40.4783 32.3812C40.4783 30.8046 39.8564 29.2926 38.7486 28.1772C37.6411 27.0621 36.1383 26.4352 34.5713 26.4352C33.0039 26.4352 31.5015 27.0621 30.3937 28.1771L30.3936 28.1772C29.2863 29.2927 28.6644 30.8046 28.6644 32.3812C28.6644 33.9579 29.2863 35.4699 30.3936 36.5853Z" fill="white" stroke="#101D33" stroke-width="0.5"/>
</svg>
