<svg width="53" height="44" viewBox="0 0 53 44" fill="none" xmlns="http://www.w3.org/2000/svg">
<path fill-rule="evenodd" clip-rule="evenodd" d="M45.8111 0.955601C45.825 1.02792 45.8322 1.10205 45.8322 1.17829V4.33482H51.3738C51.4537 4.33603 51.7508 4.34808 52.01 4.57529C52.3279 4.85463 52.3387 5.23854 52.3399 5.30212V34.4783C52.3375 35.0488 52.2748 38.2366 49.6818 40.7462C47.222 43.1286 44.2352 43.2003 43.6168 43.2003H9.21955C8.65514 43.2003 5.40221 43.1448 2.88573 40.4939C0.564814 38.0483 0.498857 35.1099 0.500014 34.4783V0.966694C0.500014 0.887746 0.511766 0.586102 0.745004 0.324541C1.02435 0.0111481 1.40252 0.000602679 1.46611 0.000602679H44.6206C44.6317 0.000301343 44.6432 0 44.6543 0C44.6655 0 44.6766 0.000301335 44.6881 0.000602679H44.846C44.9141 0.00391743 45.289 0.026518 45.5647 0.340818C45.7774 0.583394 45.8064 0.858215 45.8115 0.955554L45.8111 0.955601ZM43.4758 6.69133H43.4553V2.35682H2.85577V34.4783C2.85456 35.0804 2.97811 37.1705 4.59326 38.8719C6.33229 40.7025 8.57306 40.8441 9.21882 40.8441H43.616C44.2181 40.8441 46.3305 40.7109 48.0424 39.0532C49.8366 37.3178 49.9803 35.1087 49.9827 34.4726V6.69187H45.8315V34.8953C45.8315 35.5456 45.3036 36.0733 44.6533 36.0733C44.003 36.0733 43.4751 35.5456 43.4751 34.8953L43.4758 6.69133ZM21.4376 7.10507C22.1054 7.10507 22.6475 7.64597 22.6475 8.31374V19.6429C22.6475 20.3107 22.1054 20.8529 21.4376 20.8529H8.80391C8.13615 20.8529 7.59401 20.3107 7.59401 19.6429V8.31374C7.59401 7.64598 8.13611 7.10507 8.80391 7.10507H21.4376ZM9.9518 18.4968H20.2913V9.46178H9.9518V18.4968ZM37.5759 9.46178H26.1749C25.5246 9.46178 24.997 8.93383 24.997 8.28358C24.997 7.63333 25.5246 7.10538 26.1749 7.10538H37.5759C38.2274 7.10538 38.7541 7.63333 38.7541 8.28358C38.7541 8.93383 38.2273 9.46178 37.5759 9.46178ZM37.5759 15.1574H26.1749C25.5246 15.1574 24.997 14.6298 24.997 13.9792C24.997 13.3289 25.5246 12.8012 26.1749 12.8012H37.5759C38.2274 12.8012 38.7541 13.3289 38.7541 13.9792C38.7541 14.6298 38.2273 15.1574 37.5759 15.1574ZM37.5759 20.8533H26.1749C25.5246 20.8533 24.997 20.3254 24.997 19.6751C24.997 19.0248 25.5246 18.4969 26.1749 18.4969H37.5759C38.2274 18.4969 38.7541 19.0249 38.7541 19.6751C38.7541 20.3254 38.2273 20.8533 37.5759 20.8533ZM37.5759 26.5489H8.77383C8.12233 26.5489 7.59563 26.0213 7.59563 25.371C7.59563 24.7207 8.12236 24.1928 8.77383 24.1928H37.5759C38.2274 24.1928 38.7541 24.7207 38.7541 25.371C38.7541 26.0212 38.2273 26.5489 37.5759 26.5489ZM37.5759 32.2449H8.77383C8.12233 32.2449 7.59563 31.7169 7.59563 31.0666C7.59563 30.4164 8.12236 29.8884 8.77383 29.8884H37.5759C38.2274 29.8884 38.7541 30.4164 38.7541 31.0666C38.7541 31.7169 38.2273 32.2449 37.5759 32.2449Z" fill="white"/>
</svg>
