<svg width="59" height="48" viewBox="0 0 59 48" fill="none" xmlns="http://www.w3.org/2000/svg">
<path d="M41.9439 0.895486H7.79275C5.95525 0.895486 4.19332 1.62512 2.89437 2.92449C1.59541 4.22345 0.865356 5.98538 0.865356 7.82243V32.1744C0.865356 34.0114 1.59543 35.7733 2.89437 37.0727C4.19332 38.3717 5.95525 39.1013 7.79275 39.1013H9.49935V40.1784C9.49935 42.0154 10.229 43.7774 11.5284 45.0768C12.8273 46.3757 14.5893 47.1053 16.4263 47.1053H51.2072C53.0447 47.1053 54.8067 46.3757 56.1056 45.0768C57.4046 43.7774 58.1346 42.0154 58.1346 40.1784V15.8006C58.1346 13.9636 57.4045 12.2016 56.1056 10.9022C54.8067 9.60326 53.0447 8.87366 51.2072 8.87366H48.8712V7.8216C48.8712 5.98455 48.1411 4.22262 46.8422 2.92366C45.5428 1.62426 43.7809 0.894653 41.9438 0.894653L41.9439 0.895486ZM3.38455 32.1746V7.82266C3.38455 6.6537 3.84886 5.5323 4.67553 4.70599C5.50224 3.87927 6.62323 3.41457 7.79264 3.41457H41.9438C43.1128 3.41457 44.2342 3.87932 45.0609 4.70599C45.8876 5.53227 46.3519 6.6537 46.3519 7.82266V32.1746C46.3519 33.3435 45.8876 34.4649 45.0609 35.2917C44.2342 36.1184 43.1128 36.5827 41.9438 36.5827H7.79264C6.62334 36.5827 5.50229 36.1184 4.67553 35.2917C3.84881 34.465 3.38455 33.3435 3.38455 32.1746ZM51.2068 11.3931C52.3761 11.3931 53.4971 11.8574 54.3239 12.684C55.1506 13.5108 55.6149 14.6322 55.6149 15.8012V40.1531C55.6149 41.322 55.1505 42.4434 54.3239 43.2698C53.4972 44.0965 52.3762 44.5612 51.2068 44.5612H16.4259C15.2569 44.5612 14.1355 44.0964 13.3092 43.2698C12.4825 42.4435 12.0178 41.322 12.0178 40.1531V39.101H41.9429C43.78 39.101 45.5419 38.3714 46.8413 37.0725C48.1403 35.7731 48.8703 34.0111 48.8703 32.1741V11.3926L51.2068 11.3931Z" fill="white"/>
</svg>
