<svg width="52" height="52" viewBox="0 0 52 52" fill="none" xmlns="http://www.w3.org/2000/svg">
<path d="M7.76809 7.76809L7.76811 7.76811L7.77064 7.76549C12.413 2.95114 18.7745 0.2 25.6533 0.2H26C32.8797 0.2 39.4157 2.95183 44.2319 7.76809C49.2192 12.7554 51.7994 19.2896 51.8 26.1708C51.6273 33.0552 49.0461 39.4177 44.2319 44.2319L44.2294 44.2345C39.587 49.0489 33.2255 51.8 26.3467 51.8H26C19.1203 51.8 12.5843 49.0482 7.76809 44.2319C2.78068 39.2445 0.2 32.7095 0.2 25.6533C0.2 18.9491 2.95028 12.5859 7.76809 7.76809ZM24.6133 48.7333H24.7974L24.8126 48.5499C25.3287 42.3567 27.9086 36.6803 32.2094 32.2068C36.508 27.9088 42.1827 25.3288 48.3766 24.8126L48.56 24.7974V24.6133V24.2667H48.5604L48.5596 24.2534C48.2099 19.0093 46.4593 14.9819 43.3119 11.3098L43.1713 11.1459L43.0186 11.2986L11.2986 43.0186L11.1459 43.1713L11.3098 43.3119C14.978 46.456 19.0046 48.383 24.2534 48.7329L24.2533 48.7333H24.2667H24.6133ZM3.44 27.9067V27.9141L3.44055 27.9214C3.79014 32.6409 5.53844 37.1888 8.68815 40.8635L8.82909 41.0279L8.98181 40.8744L40.7018 8.98104L40.8501 8.83198L40.6938 8.69134C37.1953 5.54268 32.8204 3.61726 28.0948 3.26721L28.0874 3.26667H28.08H27.7333H27.3867H27.2026L27.1874 3.45006C26.6712 9.64336 24.0914 15.3198 19.7905 19.7934C15.4919 24.0912 9.81722 26.6712 3.62339 27.1874L3.44 27.2026V27.3867V27.9067ZM9.91191 9.91191L9.91187 9.91187L9.90866 9.91524C6.23841 13.7603 3.9655 18.655 3.44099 23.9001L3.41667 24.1433L3.6599 24.119C8.90105 23.5949 13.7989 21.4973 17.6481 17.6481L17.6481 17.6481L17.6513 17.6448C21.3216 13.7997 23.5945 8.905 24.119 3.6599L24.1425 3.42472L23.9067 3.44044C18.6562 3.79047 13.758 6.06587 9.91191 9.91191ZM42.0881 42.0881L42.0881 42.0881L42.0913 42.0848C45.7616 38.2397 48.0345 33.345 48.559 28.0999L48.5833 27.8567L48.3401 27.881C43.0989 28.4051 38.2011 30.5027 34.3519 34.3519L34.3519 34.3519L34.3487 34.3552C30.6784 38.2003 28.4055 43.095 27.881 48.3401L27.8575 48.5753L28.0933 48.5596C33.3438 48.2095 38.242 45.9341 42.0881 42.0881Z" fill="white" stroke="#101D33" stroke-width="0.4"/>
</svg>
