<svg width="45" height="47" viewBox="0 0 45 47" fill="none" xmlns="http://www.w3.org/2000/svg">
<path d="M13.7432 17.1187C14.6007 17.1202 15.4539 17.235 16.2811 17.46C16.8369 17.5751 17.3186 17.9185 17.6089 18.4062C17.8991 18.894 17.9708 19.4812 17.8064 20.0245C17.4919 21.3534 17.0152 22.6459 16.5934 23.9486V23.9483C16.4801 24.2424 16.3499 24.5298 16.203 24.8086C16.8502 25.2062 17.4891 25.5385 18.0609 25.9613C20.3952 27.6863 21.7976 30.0955 22.8433 32.7257C24.1608 36.1417 24.8086 39.7792 24.7511 43.4396H2.79577C2.79577 42.9796 2.77687 42.515 2.79898 42.0497C2.89774 38.4333 3.71066 34.8721 5.19103 31.5713C6.52776 28.7118 8.30079 26.2242 11.3246 24.8929C10.9439 23.9502 10.5042 23.0595 10.2282 22.12V22.1197C9.97118 21.2369 9.81038 20.3284 9.74941 19.4106C9.70234 18.9746 9.81786 18.5364 10.0739 18.1802C10.3299 17.8241 10.7082 17.5752 11.1368 17.4807C11.9846 17.2393 12.8621 17.1166 13.7435 17.1159L13.7432 17.1187ZM13.7435 14.552C12.6261 14.5524 11.514 14.7075 10.4391 15.0119C9.44826 15.2704 8.57969 15.8691 7.98603 16.7037C7.39238 17.538 7.11143 18.5549 7.19236 19.5757C7.2651 20.6817 7.45835 21.7766 7.76925 22.8406C7.86588 23.1697 7.97355 23.4842 8.09014 23.7894C5.3401 25.7319 3.81946 28.4473 2.86782 30.4853H2.86818C1.24165 34.0882 0.347423 37.9785 0.237619 41.9303C0.219792 42.3222 0.224427 42.7019 0.228349 43.0378C0.228349 43.1726 0.231914 43.3073 0.231914 43.4407C0.232627 44.1202 0.502893 44.772 0.983869 45.2523C1.46449 45.7326 2.11623 46.0025 2.79587 46.0025H24.7512C25.4305 46.0025 26.0822 45.7329 26.5629 45.253C27.0435 44.7731 27.3141 44.122 27.3152 43.4429C27.3776 39.4559 26.6681 35.4951 25.2258 31.7779C23.8015 28.1932 22.0087 25.6895 19.5849 23.8986C19.5111 23.8441 19.4373 23.7909 19.3635 23.7396C19.6983 22.7402 20.0427 21.7073 20.3015 20.6134L20.3012 20.6138C20.6185 19.4218 20.4416 18.1525 19.8106 17.0933C19.1798 16.0337 18.148 15.2734 16.9493 14.9844C15.9042 14.7009 14.826 14.5561 13.7432 14.5547L13.7435 14.552Z" fill="#5A76A6"/>
<path d="M31.8083 15.2714C32.1399 15.2528 32.4708 15.3234 32.766 15.4757C33.4014 15.8543 33.6385 16.9218 34.0178 17.7026C34.5291 18.753 35.0069 19.8194 35.5478 20.9825V20.9829C35.6622 20.821 35.7681 20.653 35.8648 20.4798C36.5803 18.9488 37.3055 17.4217 37.9972 15.8797C38.0939 15.557 38.3998 15.3434 38.7356 15.3638H38.8166C39.0722 15.3777 39.3279 15.3816 39.5867 15.3816C39.9543 15.3816 40.3219 15.3734 40.6891 15.3734H40.7811C41.9731 15.3784 42.3702 15.8579 42.1218 17.0399C41.6255 19.3998 41.1103 21.7552 40.6071 24.1137C40.2178 25.9424 39.8288 27.7719 39.4563 29.6045V29.6041C39.3981 29.9375 39.3732 30.2759 39.3817 30.6142C39.3771 34.6125 39.376 38.6107 39.3785 42.6087V43.4266H35.611C34.4768 43.4266 33.3544 43.4266 32.2313 43.4369H32.2217C31.7592 43.4369 31.7368 43.1856 31.7382 42.8365C31.7443 40.8713 31.7414 38.906 31.7407 36.9403C31.7407 35.6753 31.6615 34.4039 31.7564 33.1467C31.9885 30.0744 31.2237 27.1475 30.5859 24.1967C30.0528 21.7305 29.5305 19.2625 29.0181 16.7916H29.0185C28.894 16.4394 28.9625 16.0479 29.1989 15.7588C29.4353 15.47 29.8054 15.3252 30.1751 15.3773C30.6974 15.3694 31.2829 15.2685 31.8081 15.2685L31.8083 15.2714ZM31.8081 12.7046C31.4123 12.7046 31.0415 12.7399 30.7121 12.7709C30.4924 12.7919 30.2849 12.8112 30.1377 12.8137H30.138C29.0017 12.7738 27.9128 13.2711 27.199 14.1557C26.4852 15.0407 26.2296 16.2098 26.5088 17.3118C26.9965 19.6697 27.5107 22.0991 28.0814 24.7394C28.1549 25.0802 28.2298 25.4197 28.3053 25.758C28.8573 28.2527 29.3789 30.6091 29.2021 32.9549C29.1275 33.9408 29.1464 34.8885 29.1643 35.8044C29.1721 36.1984 29.1792 36.571 29.1792 36.9418V38.4578C29.1792 39.889 29.1792 41.3715 29.176 42.8291H29.1757C29.1375 43.683 29.4481 44.5158 30.0367 45.1359C30.6165 45.7103 31.4059 46.0233 32.2217 46.0023H32.2473C33.2222 45.9951 34.2586 45.9919 35.6107 45.9919H39.3782C40.0582 45.9919 40.7103 45.722 41.1912 45.241C41.6719 44.7604 41.9421 44.1083 41.9421 43.428V40.1058C41.9421 36.996 41.9421 33.78 41.9453 30.6177C41.9418 30.4498 41.9496 30.2822 41.9689 30.1157C42.3318 28.3312 42.703 26.5838 43.1155 24.6463C43.3176 23.6979 43.5209 22.7502 43.7259 21.8029C44.025 20.4156 44.3338 18.9816 44.6311 17.5664H44.6308C44.9592 16.392 44.721 15.1316 43.9865 14.1578C43.1903 13.2351 42.0084 12.7377 40.7919 12.813H40.6895C40.4963 12.813 40.303 12.813 40.1094 12.8169C39.9351 12.8169 39.7607 12.8208 39.5871 12.8208C39.3347 12.8208 39.1332 12.8162 38.9539 12.8066C38.8804 12.8027 38.8073 12.8009 38.7367 12.8009V12.8012C38.0789 12.7909 37.4336 12.9791 36.8845 13.3414C36.3354 13.7036 35.9083 14.2228 35.6587 14.8314L35.6077 14.943H35.6073C35.2622 14.2559 34.7327 13.6786 34.0781 13.2751C33.3882 12.8804 32.6024 12.6839 31.8076 12.7078L31.8081 12.7046Z" fill="#5A76A6"/>
<path d="M35.5954 2.56402H35.605C36.7541 2.5683 37.8134 3.18512 38.3842 4.18233C38.9551 5.1796 38.9504 6.40571 38.3725 7.39833C37.7942 8.39131 36.7302 9.0003 35.5811 8.99601H35.5668C34.714 8.99244 33.8975 8.6498 33.2971 8.04401C32.6967 7.4386 32.3619 6.61893 32.3654 5.76605C32.3694 4.91355 32.7116 4.09708 33.3174 3.49667C33.9232 2.89625 34.7425 2.5611 35.5954 2.56502L35.5954 2.56402ZM35.5954 0.00109523C33.5307 -0.00603566 31.6193 1.08892 30.5806 2.87381C29.5424 4.65833 29.5345 6.86144 30.561 8.653C31.5871 10.4446 33.4914 11.5525 35.5562 11.5596H35.5808H35.5805C37.6456 11.5667 39.5574 10.4718 40.596 8.68723C41.635 6.90234 41.6425 4.69931 40.6163 2.9073C39.5902 1.11566 37.6859 0.00721076 35.6211 0H35.5954L35.5954 0.00109523Z" fill="#5A76A6"/>
<path d="M13.7385 4.85592C14.7818 4.86982 15.7402 5.43423 16.2579 6.34024C16.7756 7.24586 16.7756 8.35788 16.2579 9.26388C15.7402 10.1699 14.7818 10.7342 13.7385 10.7478H13.7136C12.6611 10.7478 11.6884 10.1863 11.1625 9.27492C10.6363 8.36359 10.6363 7.24049 11.1625 6.32883C11.6884 5.4175 12.6611 4.85592 13.7136 4.85592H13.7392H13.7385ZM13.7392 2.29199H13.6908C12.2165 2.27523 10.7974 2.84998 9.75021 3.88748C8.70301 4.92501 8.1151 6.33869 8.1183 7.81269C8.12151 9.28697 8.71516 10.6982 9.76664 11.7315C10.8181 12.7644 12.2397 13.3331 13.7136 13.3103H13.7646C15.7206 13.2875 17.5179 12.2292 18.487 10.53C19.4557 8.83069 19.451 6.74523 18.4745 5.05024C17.4979 3.35562 15.6956 2.30559 13.7396 2.29163L13.7392 2.29199Z" fill="#5A76A6"/>
</svg>
