<svg xmlns="http://www.w3.org/2000/svg" width="15.21" height="16.928" viewBox="0 0 15.21 16.928">
  <g id="add-a-contact-on-phone-interface-symbol-of-a-user-with-a-plus-sign-svgrepo-com" transform="translate(-23.221)"  fill="black">
    <path id="Path_3868" data-name="Path 3868" d="M82.868,8.979A4.49,4.49,0,1,0,78.38,4.492,4.49,4.49,0,0,0,82.868,8.979Z" transform="translate(-53.118)" fill="black"/>
    <path id="Path_3869" data-name="Path 3869" d="M35.423,217.427a7.754,7.754,0,0,0-.917-1.505,3.262,3.262,0,0,0-.941-.744,5.1,5.1,0,0,1-7.627,0,3.254,3.254,0,0,0-.917.748,8.808,8.808,0,0,0-1.8,4.664,1.821,1.821,0,0,0,.574,1.44c.735.514,2.319,1.172,5.618,1.172a21.843,21.843,0,0,0,2.918-.18,3.7,3.7,0,0,1,3.089-5.6Z"  fill="black" transform="translate(0 -207.215)"/>
    <path id="Path_3870" data-name="Path 3870" d="M274.732,294.946a3.007,3.007,0,1,0,3.007,3.007A3.008,3.008,0,0,0,274.732,294.946Zm1.485,3.561h-1.16v1.161a.348.348,0,0,1-.7,0v-1.16H273.2a.348.348,0,1,1,0-.7h1.16v-1.16a.348.348,0,0,1,.7,0v1.16h1.16a.348.348,0,1,1,0,.7Z"  transform="translate(-239.309 -284.033)"/>
  </g>
</svg>
