<svg width="18" height="21" viewBox="0 0 18 21" fill="none" xmlns="http://www.w3.org/2000/svg">
<path d="M9.25234 4.84615C10.1953 4.84615 11.3773 4.20534 12.0812 3.35092C12.7187 2.5766 13.1836 1.49523 13.1836 0.413859C13.1836 0.267006 13.1703 0.120153 13.1437 0C12.0945 0.0400509 10.8328 0.707566 10.0758 1.60203C9.47813 2.2829 8.93359 3.35092 8.93359 4.44564C8.93359 4.60585 8.96016 4.76605 8.97344 4.81945C9.03984 4.8328 9.14609 4.84615 9.25234 4.84615ZM5.93203 21C7.22031 21 7.79141 20.1322 9.39844 20.1322C11.032 20.1322 11.3906 20.9733 12.825 20.9733C14.2328 20.9733 15.1758 19.665 16.0656 18.3833C17.0617 16.9148 17.4734 15.473 17.5 15.4062C17.407 15.3795 14.7109 14.2715 14.7109 11.1608C14.7109 8.46408 16.8359 7.2492 16.9555 7.15575C15.5477 5.12651 13.4094 5.07311 12.825 5.07311C11.2445 5.07311 9.95625 6.03433 9.14609 6.03433C8.26953 6.03433 7.11406 5.12651 5.74609 5.12651C3.14297 5.12651 0.5 7.28925 0.5 11.3744C0.5 13.911 1.48281 16.5944 2.69141 18.3299C3.72734 19.7985 4.63047 21 5.93203 21Z" fill="white"/>
</svg>
