<svg width="48" height="54" viewBox="0 0 48 54" fill="none" xmlns="http://www.w3.org/2000/svg">
<g filter="url(#filter0_dd_47_48)">
<path d="M44 27C44 38.0457 35.0457 47 24 47V47C12.9543 47 4 38.0457 4 27V27C4 15.9543 12.9543 7 24 7V7C35.0457 7 44 15.9543 44 27V27Z" fill="white"/>
</g>
<path d="M15.2587 26.9749L21.2642 32.7899C21.3586 32.8782 21.485 32.927 21.6162 32.9259C21.7475 32.9248 21.873 32.8739 21.9658 32.784C22.0586 32.6942 22.1112 32.5726 22.1123 32.4456C22.1135 32.3185 22.063 32.1961 21.9719 32.1047L16.8211 27.1173L33.1292 27.1173C33.2619 27.1173 33.3892 27.0663 33.4831 26.9754C33.5769 26.8845 33.6296 26.7613 33.6296 26.6328C33.6296 26.5042 33.5769 26.381 33.4831 26.2901C33.3892 26.1992 33.2619 26.1482 33.1292 26.1482L16.8211 26.1482L21.9719 21.1608C22.0657 21.0698 22.1184 20.9465 22.1183 20.8179C22.1182 20.6893 22.0653 20.566 21.9714 20.4751C21.8774 20.3843 21.75 20.3333 21.6172 20.3333C21.4844 20.3334 21.357 20.3846 21.2632 20.4756L15.2577 26.2906C15.1638 26.3815 15.1111 26.5047 15.1111 26.6332C15.1111 26.7617 15.1638 26.885 15.2577 26.9758L15.2587 26.9749Z" fill="#020914" stroke="#020914"/>
<defs>
<filter id="filter0_dd_47_48" x="0" y="0" width="48" height="54" filterUnits="userSpaceOnUse" color-interpolation-filters="sRGB">
<feFlood flood-opacity="0" result="BackgroundImageFix"/>
<feColorMatrix in="SourceAlpha" type="matrix" values="0 0 0 0 0 0 0 0 0 0 0 0 0 0 0 0 0 0 127 0" result="hardAlpha"/>
<feOffset dy="-3"/>
<feGaussianBlur stdDeviation="2"/>
<feComposite in2="hardAlpha" operator="out"/>
<feColorMatrix type="matrix" values="0 0 0 0 0 0 0 0 0 0 0 0 0 0 0 0 0 0 0.12 0"/>
<feBlend mode="normal" in2="BackgroundImageFix" result="effect1_dropShadow_47_48"/>
<feColorMatrix in="SourceAlpha" type="matrix" values="0 0 0 0 0 0 0 0 0 0 0 0 0 0 0 0 0 0 127 0" result="hardAlpha"/>
<feOffset dy="3"/>
<feGaussianBlur stdDeviation="2"/>
<feComposite in2="hardAlpha" operator="out"/>
<feColorMatrix type="matrix" values="0 0 0 0 0 0 0 0 0 0 0 0 0 0 0 0 0 0 0.12 0"/>
<feBlend mode="normal" in2="effect1_dropShadow_47_48" result="effect2_dropShadow_47_48"/>
<feBlend mode="normal" in="SourceGraphic" in2="effect2_dropShadow_47_48" result="shape"/>
</filter>
</defs>
</svg>
