<svg width="27" height="24" viewBox="0 0 27 24" fill="none" xmlns="http://www.w3.org/2000/svg">
<path opacity="0.6" d="M19.0369 3.34313L19.334 3.66667H19.7733H24C24.9144 3.66667 25.6667 4.41895 25.6667 5.33333V21.3333C25.6667 22.2477 24.9144 23 24 23H2.66667C1.75228 23 1 22.2477 1 21.3333V5.33333C1 4.41895 1.75228 3.66667 2.66667 3.66667H6.89333H7.33504L7.63253 3.34016L9.26934 1.54366C9.58992 1.19932 10.0445 1 10.5067 1H16.1596C16.3895 1.00018 16.6168 1.04828 16.827 1.14123C17.0373 1.23421 17.2259 1.37004 17.3807 1.54004L17.3835 1.54313L19.0369 3.34313ZM5.66667 13.3333C5.66667 17.5656 9.10105 21 13.3333 21C17.5656 21 21 17.5656 21 13.3333C21 9.10105 17.5656 5.66667 13.3333 5.66667C9.10105 5.66667 5.66667 9.10105 5.66667 13.3333Z" stroke="white" stroke-width="2"/>
</svg>
