<svg width="13" height="8" viewBox="0 0 13 8" fill="none" xmlns="http://www.w3.org/2000/svg">
<path opacity="0.6" d="M12.8798 0.481717C12.9711 0.627092 13.0116 0.790301 12.9971 0.953383C12.9826 1.11646 12.9135 1.2731 12.7975 1.40605L7.38163 7.62748C7.28143 7.7427 7.14915 7.83661 6.99579 7.9014C6.84243 7.9662 6.67242 8 6.49993 8C6.32743 8 6.15743 7.9662 6.00407 7.9014C5.8507 7.83661 5.71842 7.7427 5.61822 7.62748L0.202352 1.40604C0.0864286 1.27314 0.0174083 1.11659 0.00288387 0.953589C-0.0116406 0.790591 0.0288915 0.627462 0.120022 0.482138C0.211152 0.336814 0.349352 0.214921 0.519429 0.129861C0.689507 0.0448012 0.884874 -0.00013266 1.08405 -3.30639e-08L11.9158 4.40407e-07C12.1149 -0.000170704 12.3103 0.0447006 12.4803 0.129684C12.6504 0.214667 12.7886 0.336473 12.8798 0.481717Z" fill="white"/>
</svg>
