<svg width="23" height="24" viewBox="0 0 23 24" fill="none" xmlns="http://www.w3.org/2000/svg">
<path d="M7.2998 12C7.2998 12.3713 7.1523 12.7274 6.88975 12.9899C6.6272 13.2525 6.27111 13.4 5.8998 13.4C5.5285 13.4 5.17241 13.2525 4.90986 12.9899C4.6473 12.7274 4.4998 12.3713 4.4998 12C4.4998 11.6287 4.6473 11.2726 4.90986 11.01C5.17241 10.7475 5.5285 10.6 5.8998 10.6C6.27111 10.6 6.6272 10.7475 6.88975 11.01C7.1523 11.2726 7.2998 11.6287 7.2998 12ZM12.8998 12C12.8998 12.3713 12.7523 12.7274 12.4898 12.9899C12.2272 13.2525 11.8711 13.4 11.4998 13.4C11.1285 13.4 10.7724 13.2525 10.5099 12.9899C10.2473 12.7274 10.0998 12.3713 10.0998 12C10.0998 11.6287 10.2473 11.2726 10.5099 11.01C10.7724 10.7475 11.1285 10.6 11.4998 10.6C11.8711 10.6 12.2272 10.7475 12.4898 11.01C12.7523 11.2726 12.8998 11.6287 12.8998 12ZM18.4998 12C18.4998 12.3713 18.3523 12.7274 18.0898 12.9899C17.8272 13.2525 17.4711 13.4 17.0998 13.4C16.7285 13.4 16.3724 13.2525 16.1099 12.9899C15.8473 12.7274 15.6998 12.3713 15.6998 12C15.6998 11.6287 15.8473 11.2726 16.1099 11.01C16.3724 10.7475 16.7285 10.6 17.0998 10.6C17.4711 10.6 17.8272 10.7475 18.0898 11.01C18.3523 11.2726 18.4998 11.6287 18.4998 12ZM11.4998 0.799999C8.52938 0.799999 5.68062 1.98 3.58021 4.0804C1.4798 6.18081 0.299805 9.02957 0.299805 12C0.299805 14.9704 1.4798 17.8192 3.58021 19.9196C5.68062 22.02 8.52938 23.2 11.4998 23.2C14.4702 23.2 17.319 22.02 19.4194 19.9196C21.5198 17.8192 22.6998 14.9704 22.6998 12C22.6998 9.02957 21.5198 6.18081 19.4194 4.0804C17.319 1.98 14.4702 0.799999 11.4998 0.799999ZM1.6998 12C1.6998 10.713 1.95329 9.43869 2.44579 8.2497C2.93828 7.06071 3.66014 5.98037 4.57016 5.07035C5.48017 4.16034 6.56052 3.43848 7.74951 2.94598C8.9385 2.45348 10.2129 2.2 11.4998 2.2C12.7868 2.2 14.0611 2.45348 15.2501 2.94598C16.4391 3.43848 17.5194 4.16034 18.4295 5.07035C19.3395 5.98037 20.0613 7.06071 20.5538 8.2497C21.0463 9.43869 21.2998 10.713 21.2998 12C21.2998 14.5991 20.2673 17.0918 18.4295 18.9296C16.5916 20.7675 14.0989 21.8 11.4998 21.8C8.90068 21.8 6.40801 20.7675 4.57016 18.9296C2.7323 17.0918 1.6998 14.5991 1.6998 12Z" fill="white"/>
</svg>
