<svg width="15" height="17" viewBox="0 0 15 17" fill="none" xmlns="http://www.w3.org/2000/svg">
<path d="M13.5549 2.12512L10.3836 2.11979L10.3845 1.5942C10.386 0.723368 9.61272 0.0161356 8.65736 0.0145306L6.35096 0.0106557C5.39561 0.00905072 4.61998 0.713681 4.61851 1.58452L4.61763 2.1101L1.44633 2.10478C0.650226 2.10344 0.00384145 2.69065 0.0026223 3.41633L0.00085629 4.4675C0.000368595 4.75779 0.25811 4.99353 0.576573 4.99406L14.415 5.01731C14.7334 5.01784 14.992 4.78298 14.9925 4.49269L14.9942 3.44151C14.9954 2.71584 14.351 2.12646 13.5549 2.12512ZM5.77171 1.58645C5.7722 1.29672 6.03135 1.0613 6.3492 1.06183L8.6556 1.06571C8.97345 1.06624 9.2318 1.30253 9.23132 1.59227L9.23043 2.11785L5.77083 2.11204L5.77171 1.58645Z" fill="white"/>
<path d="M1.17558 5.99369C1.07403 5.99352 0.992976 6.07329 0.997653 6.16882L1.45158 15.4478C1.49353 16.3066 2.2415 16.9803 3.15423 16.9818L11.797 16.9964C12.7098 16.9979 13.46 16.3267 13.5048 15.468L13.99 6.19062C13.995 6.09512 13.9142 6.01508 13.8126 6.0149L1.17558 5.99369ZM9.76833 7.34773C9.76883 7.05168 10.0239 6.81231 10.3384 6.81284C10.6528 6.81337 10.9071 7.05359 10.9066 7.34964L10.8949 14.3156C10.8944 14.6117 10.6393 14.851 10.3248 14.8505C10.0104 14.85 9.75612 14.6098 9.75662 14.3137L9.76833 7.34773ZM6.92273 7.34295C6.92323 7.0469 7.17831 6.80754 7.49275 6.80806C7.80719 6.80859 8.06147 7.04881 8.06097 7.34486L8.04926 14.3108C8.04876 14.6069 7.79368 14.8463 7.47924 14.8457C7.1648 14.8452 6.91052 14.605 6.91102 14.3089L6.92273 7.34295ZM4.07713 7.33818C4.07763 7.04212 4.33271 6.80276 4.64715 6.80329C4.96159 6.80382 5.21587 7.04403 5.21537 7.34009L5.20366 14.3061C5.20316 14.6021 4.94807 14.8415 4.63363 14.8409C4.3192 14.8404 4.06492 14.6002 4.06541 14.3041L4.07713 7.33818Z" fill="white"/>
</svg>
