<svg width="22" height="23" viewBox="0 0 22 23" fill="none" xmlns="http://www.w3.org/2000/svg">
<path d="M7.5 11C8.32837 11 9 10.1045 9 9C9 7.89551 8.32837 7 7.5 7C6.67163 7 6 7.89551 6 9C6 10.1045 6.67163 11 7.5 11Z" fill="white"/>
<path d="M16 9C16 10.1045 15.3284 11 14.5 11C13.6716 11 13 10.1045 13 9C13 7.89551 13.6716 7 14.5 7C15.3284 7 16 7.89551 16 9Z" fill="white"/>
<path d="M11 15.7891C12.5 15.7891 14 14.7373 14 13.6328C14 12.5283 12 12.5 11 12.5C10 12.5 8 12.5283 8 13.6328C8 14.7373 9.5 15.7891 11 15.7891Z" fill="white"/>
<path fill-rule="evenodd" clip-rule="evenodd" d="M22 11.5C22 17.5752 17.0752 22.5 11 22.5C4.9248 22.5 0 17.5752 0 11.5C0 5.4248 4.9248 0.5 11 0.5C17.0752 0.5 22 5.4248 22 11.5ZM20 11.5C20 16.4705 15.9705 20.5 11 20.5C6.02954 20.5 2 16.4705 2 11.5C2 6.52954 6.02954 2.5 11 2.5C15.9705 2.5 20 6.52954 20 11.5Z" fill="white"/>
</svg>
