<svg width="44" height="62" viewBox="0 0 44 62" fill="none" xmlns="http://www.w3.org/2000/svg">
<rect x="8" y="6.55521" width="28" height="30.0741" fill="#9DC8EB"/>
<ellipse cx="25.3398" cy="13.4784" rx="3.78606" ry="4.06651" fill="#FEF8AE"/>
<path d="M30.6162 24.6325C29.6464 24.554 28.7335 24.9828 27.9083 25.6421C27.0825 26.3019 26.3028 27.2254 25.5831 28.2239C24.8612 29.2252 24.1836 30.3249 23.5681 31.3508C23.4298 31.5813 23.295 31.8075 23.1636 32.0278C22.7054 32.7966 22.2891 33.4948 21.9124 34.063L21.8184 34.2048V43.0602H46.2132L45.3256 42.1326C42.4129 39.0887 39.97 35.4699 37.8327 32.3038C37.5309 31.8568 37.2351 31.4185 36.945 30.9924C35.7805 29.2817 34.6981 27.7509 33.6834 26.6295C32.6858 25.5271 31.6655 24.7175 30.6162 24.6325Z" fill="#C89577"/>
<path d="M15.8511 22.0378C14.8513 21.9593 13.9101 22.3881 13.0594 23.0474C12.208 23.7072 11.4042 24.6307 10.6621 25.6292C9.91787 26.6305 9.21927 27.7302 8.58473 28.7561C8.4421 28.9866 8.30312 29.2128 8.1677 29.4331C7.69523 30.2019 7.26613 30.9002 6.87774 31.4683L6.78076 31.6101V40.4655H31.9313L31.0162 39.5379C28.0133 36.494 25.4947 32.8752 23.2912 29.7091C22.98 29.2621 22.675 28.8238 22.376 28.3977C21.1754 26.687 20.0595 25.1562 19.0133 24.0348C17.9849 22.9324 16.9329 22.1228 15.8511 22.0378Z" fill="#C89577"/>
<g filter="url(#filter0_d_47_48)">
<rect x="7" y="5.40723" width="30" height="32.3704" rx="3" stroke="white" stroke-width="2"/>
</g>
<g filter="url(#filter1_d_47_48)">
<path d="M4.82187 46.212V51.151C4.82187 52.955 6.13087 54.198 7.83587 54.198C9.54087 54.198 10.8499 52.955 10.8499 51.151V46.212H9.79387V50.986C9.79387 51.954 9.30987 53.208 7.83587 53.208C6.36187 53.208 5.87787 51.954 5.87787 50.986V46.212H4.82187ZM12.457 57.102H13.447V53.252H13.469C13.821 53.791 14.536 54.132 15.284 54.132C16.89 54.132 17.935 52.955 17.935 51.393C17.935 49.853 16.901 48.654 15.284 48.654C14.58 48.654 13.854 48.973 13.469 49.534H13.447V48.786H12.457V57.102ZM15.163 49.578C16.219 49.578 16.879 50.337 16.879 51.393C16.879 52.449 16.219 53.208 15.163 53.208C14.107 53.208 13.447 52.449 13.447 51.393C13.447 50.337 14.107 49.578 15.163 49.578ZM19.2586 54H20.2486V45.684H19.2586V54ZM22.6272 51.393C22.6272 50.337 23.2872 49.578 24.3432 49.578C25.3992 49.578 26.0592 50.337 26.0592 51.393C26.0592 52.449 25.3992 53.208 24.3432 53.208C23.2872 53.208 22.6272 52.449 22.6272 51.393ZM21.5712 51.393C21.5712 52.911 22.7922 54.132 24.3432 54.132C25.8942 54.132 27.1152 52.911 27.1152 51.393C27.1152 49.875 25.8942 48.654 24.3432 48.654C22.7922 48.654 21.5712 49.875 21.5712 51.393ZM28.9714 50.04C29.3344 49.765 29.6974 49.446 30.4564 49.446C31.3034 49.446 31.6994 50.007 31.6994 50.546V50.766H30.9734C29.3894 50.766 28.1024 51.228 28.1024 52.57C28.1024 53.582 28.9384 54.132 29.9064 54.132C30.6984 54.132 31.2924 53.879 31.7324 53.208H31.7544C31.7544 53.472 31.7654 53.736 31.7874 54H32.6674C32.6344 53.725 32.6234 53.417 32.6234 53.054V50.392C32.6234 49.49 31.9854 48.654 30.4454 48.654C29.7194 48.654 28.9274 48.907 28.3774 49.424L28.9714 50.04ZM31.6994 51.492V51.822C31.6994 52.526 31.3144 53.34 30.2144 53.34C29.5324 53.34 29.0924 53.087 29.0924 52.493C29.0924 51.657 30.2364 51.492 31.1714 51.492H31.6994ZM39.2845 45.684H38.2945V49.534H38.2725C37.9205 48.995 37.2055 48.654 36.4575 48.654C34.8515 48.654 33.8065 49.831 33.8065 51.393C33.8065 52.933 34.8405 54.132 36.4575 54.132C37.1615 54.132 37.8875 53.813 38.2725 53.252H38.2945V54H39.2845V45.684ZM36.5785 53.208C35.5225 53.208 34.8625 52.449 34.8625 51.393C34.8625 50.337 35.5225 49.578 36.5785 49.578C37.6345 49.578 38.2945 50.337 38.2945 51.393C38.2945 52.449 37.6345 53.208 36.5785 53.208Z" fill="white"/>
</g>
<defs>
<filter id="filter0_d_47_48" x="2" y="0.737227" width="40" height="42.3704" filterUnits="userSpaceOnUse" color-interpolation-filters="sRGB">
<feFlood flood-opacity="0" result="BackgroundImageFix"/>
<feColorMatrix in="SourceAlpha" type="matrix" values="0 0 0 0 0 0 0 0 0 0 0 0 0 0 0 0 0 0 127 0" result="hardAlpha"/>
<feOffset dy="0.33"/>
<feGaussianBlur stdDeviation="2"/>
<feColorMatrix type="matrix" values="0 0 0 0 0 0 0 0 0 0 0 0 0 0 0 0 0 0 0.2 0"/>
<feBlend mode="normal" in2="BackgroundImageFix" result="effect1_dropShadow_47_48"/>
<feBlend mode="normal" in="SourceGraphic" in2="effect1_dropShadow_47_48" result="shape"/>
</filter>
<filter id="filter1_d_47_48" x="0.821777" y="42.014" width="42.4626" height="19.418" filterUnits="userSpaceOnUse" color-interpolation-filters="sRGB">
<feFlood flood-opacity="0" result="BackgroundImageFix"/>
<feColorMatrix in="SourceAlpha" type="matrix" values="0 0 0 0 0 0 0 0 0 0 0 0 0 0 0 0 0 0 127 0" result="hardAlpha"/>
<feOffset dy="0.33"/>
<feGaussianBlur stdDeviation="2"/>
<feColorMatrix type="matrix" values="0 0 0 0 0 0 0 0 0 0 0 0 0 0 0 0 0 0 0.1 0"/>
<feBlend mode="normal" in2="BackgroundImageFix" result="effect1_dropShadow_47_48"/>
<feBlend mode="normal" in="SourceGraphic" in2="effect1_dropShadow_47_48" result="shape"/>
</filter>
</defs>
</svg>
