<svg width="118" height="118" viewBox="0 0 118 118" fill="none" xmlns="http://www.w3.org/2000/svg">
<circle cx="59" cy="59" r="56.5" fill="#04132B" stroke="#014BC3" stroke-width="5" stroke-linecap="round" stroke-linejoin="round" stroke-dasharray="2999 500"/>
<path d="M62.7043 45.6365C63.1568 45.6365 63.5442 45.98 63.5891 46.4399C63.6372 46.9295 63.2795 47.365 62.7899 47.4131C62.3983 47.4516 53.1844 48.3561 52.2598 48.4115C51.9181 48.4321 51.5457 48.6355 51.537 49.0344C51.5334 49.2043 51.5957 49.3655 51.7129 49.4883C51.8302 49.611 51.9886 49.6806 52.1581 49.6843C52.9829 49.7026 66.5055 49.7516 66.6427 49.7521C66.6491 49.7521 66.6555 49.7521 66.662 49.7525C67.6008 49.7759 68.128 50.1931 68.4055 50.5389C68.9354 51.2003 69.0605 52.1945 68.7875 53.5791C68.755 53.7454 68.7073 53.9437 68.6524 54.1727C68.3886 55.2741 67.839 57.5659 68.6648 58.5721C68.9185 58.8813 69.3229 59.0727 69.8725 59.1442C69.8285 58.0711 69.894 56.1878 71.4916 53.9592C72.4726 52.5911 73.8086 51.8345 74.9869 51.1676C76.4791 50.3231 77.6574 49.6562 77.969 48.0143C78.0606 47.5311 78.5273 47.2137 79.0095 47.3053C79.4927 47.3969 79.8101 47.8627 79.7185 48.3459C79.2532 50.7989 77.4528 51.8179 75.8645 52.7169C74.747 53.3494 73.6913 53.9471 72.9388 54.9963C71.5295 56.9626 71.6189 58.5289 71.6674 59.3707C71.6949 59.8493 71.7206 60.3009 71.3693 60.6572C71.1815 60.8478 70.9314 60.9513 70.6607 60.9522C69.148 61.0062 68.014 60.5853 67.2885 59.7014C65.9017 58.0109 66.5644 55.2441 66.9207 53.7576C66.9711 53.5474 67.0146 53.3655 67.0403 53.235C67.2738 52.0493 67.0609 51.7089 67.0155 51.6526C66.9427 51.5615 66.7646 51.5368 66.6253 51.5327C65.9296 51.5304 52.9556 51.4832 52.1184 51.4644C51.4731 51.4498 50.8722 51.185 50.4256 50.7188C49.9795 50.2521 49.7418 49.6402 49.756 48.9945C49.784 47.729 50.8144 46.7141 52.1527 46.6339C52.8658 46.5913 59.3083 45.9657 62.6155 45.641C62.6462 45.6378 62.6755 45.6364 62.7048 45.6364L62.7043 45.6365Z" fill="white"/>
<path d="M68.9829 34.9999C70.4334 34.9999 72.1143 35.0842 74.0644 35.2761C76.7616 35.5413 78.3769 36.2722 79.8022 36.9166C81.1666 37.5335 82.3446 38.0666 84.2929 38.0666C84.7848 38.0666 85.1832 38.4651 85.1832 38.957C85.1832 39.4489 84.7848 39.8473 84.2929 39.8473C81.9607 39.8473 80.5556 39.2121 79.0685 38.5393C77.705 37.9229 76.2958 37.2854 73.8904 37.0485C64.0967 36.0849 62.2331 38.0044 61.9582 38.3992C61.8186 38.6003 61.6931 38.9026 61.9647 39.4595C62.1804 39.9014 61.9972 40.4345 61.5552 40.6502C61.1132 40.8664 60.5801 40.6827 60.3644 40.2408C59.8707 39.23 59.9174 38.2151 60.4959 37.3834C61.3043 36.2191 63.4687 35.0004 68.9825 35L68.9829 34.9999Z" fill="white"/>
<path d="M46.7768 56.9436C48.1627 56.9436 49.2102 57.3654 49.8944 58.199C51.2812 59.889 50.6185 62.6562 50.2622 64.1428C50.2118 64.353 50.1683 64.5348 50.1426 64.6658C49.9091 65.8515 50.122 66.1919 50.1674 66.2482C50.2407 66.3393 50.4179 66.364 50.5576 66.3682C51.2533 66.3705 64.2274 66.4176 65.0645 66.4364C65.7098 66.4511 66.3107 66.7158 66.7573 67.182C67.2034 67.6487 67.4411 68.2606 67.4269 68.9059C67.3985 70.1718 66.3685 71.1867 65.0303 71.2664C64.3172 71.309 57.8746 71.9346 54.5679 72.2594C54.0801 72.3088 53.6427 71.9498 53.5946 71.4602C53.5465 70.9706 53.9042 70.535 54.3938 70.4869C54.7854 70.4485 63.9998 69.5439 64.924 69.4885C65.2661 69.4679 65.638 69.2645 65.6472 68.8656C65.6549 68.5148 65.376 68.2235 65.0257 68.2157C64.2008 68.1974 50.677 68.1484 50.541 68.1479L50.5218 68.1479C49.5829 68.1246 49.0557 67.7074 48.7782 67.3611C48.2483 66.6998 48.1233 65.7055 48.3963 64.3209C48.4292 64.1547 48.4764 63.9563 48.5314 63.7274C48.7952 62.6259 49.3447 60.3341 48.519 59.3279C48.2653 59.0188 47.8604 58.8278 47.3112 58.7559C47.3552 59.829 47.2897 61.7122 45.6922 63.9409C44.7111 65.3089 43.3751 66.0655 42.1968 66.7324C40.7046 67.5769 39.5263 68.2438 39.2148 69.8857C39.1232 70.3689 38.6574 70.6863 38.1742 70.5947C37.691 70.5031 37.3736 70.0373 37.4652 69.5542C37.9306 67.1011 39.7309 66.0821 41.3192 65.1831C42.4367 64.5506 43.4924 63.9529 44.2449 62.9037C45.6542 60.9375 45.5649 59.3712 45.5163 58.5293C45.4888 58.0507 45.4632 57.5992 45.8145 57.2428C46.0023 57.0523 46.2523 56.9488 46.523 56.9479C46.6077 56.9456 46.6925 56.9437 46.7763 56.9437L46.7768 56.9436Z" fill="white"/>
<path d="M56.017 77.1604C56.3468 77.1604 56.6632 77.344 56.8176 77.6601C57.3113 78.6709 57.2646 79.6853 56.6866 80.5175C55.6657 81.9867 52.4831 83.5452 43.1188 82.6238C40.4217 82.3586 38.8064 81.6281 37.381 80.9833C36.0166 80.3664 34.8386 79.8333 32.8904 79.8333C32.3985 79.8333 32 79.4348 32 78.9429C32 78.451 32.3985 78.0526 32.8904 78.0526C35.2225 78.0526 36.6276 78.6878 38.1147 79.3606C39.4777 79.977 40.8874 80.6145 43.2928 80.8514C53.0856 81.8145 54.9502 79.8955 55.225 79.5007C55.3647 79.2996 55.4902 78.9973 55.2186 78.4404C55.0029 77.9985 55.1861 77.4654 55.628 77.2497C55.7535 77.1892 55.8868 77.1604 56.0178 77.1604L56.017 77.1604Z" fill="white"/>
<path d="M61.4242 58.8343C61.7832 59.0415 61.7832 59.5596 61.4242 59.7668L57.2552 62.1738C56.8963 62.381 56.4477 62.122 56.4477 61.7075L56.4477 56.8936C56.4477 56.4791 56.8963 56.2201 57.2552 56.4273L61.4242 58.8343Z" fill="white"/>
</svg>
