<svg width="25" height="24" viewBox="0 0 25 24" fill="none" xmlns="http://www.w3.org/2000/svg">
<path d="M3.6071 19.238V23.7661L5.42869 22.6731L11.1544 19.238H16.8331C18.1594 19.238 19.2379 18.1595 19.2379 16.8332V7.21431C19.2379 5.88809 18.1594 4.80957 16.8331 4.80957H2.40474C1.07852 4.80957 0 5.88809 0 7.21431V16.8332C0 18.1595 1.07852 19.238 2.40474 19.238H3.6071ZM2.40474 7.21431H16.8331V16.8332H10.4883L6.01184 19.5193V16.8332H2.40474V7.21431Z" fill="white"/>
<path d="M21.6427 0H7.21431C5.88809 0 4.80957 1.07852 4.80957 2.40474H19.238C20.5642 2.40474 21.6427 3.48326 21.6427 4.80947V14.4284C22.9689 14.4284 24.0475 13.3499 24.0475 12.0237V2.40474C24.0475 1.07852 22.9689 0 21.6427 0Z" fill="white"/>
</svg>
