<svg width="34" height="47" viewBox="0 0 34 47" fill="none" xmlns="http://www.w3.org/2000/svg">
<path d="M13.625 16C17.4855 16 20.625 12.8605 20.625 9C20.625 5.1395 17.4855 2 13.625 2C9.7645 2 6.625 5.1395 6.625 9C6.625 12.8605 9.7645 16 13.625 16ZM16.25 17.75H11C5.20925 17.75 0.5 22.4592 0.5 28.25V30H26.75V28.25C26.75 22.4592 22.0408 17.75 16.25 17.75Z" fill="white"/>
<path d="M26.057 14.3339C27.1228 12.5176 27.5831 10.4092 27.3713 8.31394C27.058 5.19194 25.315 2.4322 22.466 0.543945L20.5323 3.45945C22.4905 4.75795 23.6823 6.6077 23.8888 8.66395C23.984 9.61962 23.865 10.5845 23.5405 11.4884C23.216 12.3923 22.6941 13.2126 22.0128 13.8894L19.9268 15.9754L22.7583 16.8067C30.1643 18.9767 30.25 26.4247 30.25 26.4999H33.75C33.75 23.3692 32.077 17.2512 26.057 14.3339Z" fill="white"/>
<g filter="url(#filter0_d_47_48)">
<path d="M1.47256 45H2.64256V38.838H1.47256V45ZM1.19956 36.628C1.19956 37.096 1.58956 37.486 2.05756 37.486C2.52556 37.486 2.91556 37.096 2.91556 36.628C2.91556 36.16 2.52556 35.77 2.05756 35.77C1.58956 35.77 1.19956 36.16 1.19956 36.628ZM4.50461 45H5.67461V41.828C5.67461 40.398 6.41561 39.774 7.39061 39.774C8.13161 39.774 8.79461 40.203 8.79461 41.36V45H9.96461V41.035C9.96461 39.397 8.92461 38.682 7.72861 38.682C6.77961 38.682 5.99961 39.137 5.70061 39.787H5.67461V38.838H4.50461V45ZM13.4962 45H14.7832L17.2012 38.838H15.9532L14.1852 43.557L12.3392 38.838H10.9872L13.4962 45ZM18.3192 45H19.4892V38.838H18.3192V45ZM18.0462 36.628C18.0462 37.096 18.4362 37.486 18.9042 37.486C19.3722 37.486 19.7622 37.096 19.7622 36.628C19.7622 36.16 19.3722 35.77 18.9042 35.77C18.4362 35.77 18.0462 36.16 18.0462 36.628ZM24.6533 38.838H22.9763V37.109H21.8063V38.838H20.4543V39.852H21.8063V43.063C21.8063 44.051 21.8323 45.156 23.6393 45.156C23.8733 45.156 24.4193 45.104 24.6923 44.948V43.882C24.4583 44.025 24.1333 44.064 23.8603 44.064C22.9763 44.064 22.9763 43.336 22.9763 42.647V39.852H24.6533V38.838ZM31.9868 42.348V41.932C31.9868 40.346 31.1548 38.682 28.9838 38.682C27.1378 38.682 25.7988 40.073 25.7988 41.919C25.7988 43.752 27.0208 45.156 28.9708 45.156C30.1538 45.156 31.0508 44.74 31.7008 43.895L30.8168 43.219C30.3618 43.778 29.8418 44.142 29.1268 44.142C28.0478 44.142 27.0468 43.427 27.0468 42.348H31.9868ZM27.0468 41.412C27.0468 40.593 27.8008 39.618 28.9578 39.618C30.1408 39.618 30.7128 40.385 30.7388 41.412H27.0468Z" fill="white"/>
</g>
<defs>
<filter id="filter0_d_47_48" x="1.19971" y="35.77" width="31.7871" height="10.386" filterUnits="userSpaceOnUse" color-interpolation-filters="sRGB">
<feFlood flood-opacity="0" result="BackgroundImageFix"/>
<feColorMatrix in="SourceAlpha" type="matrix" values="0 0 0 0 0 0 0 0 0 0 0 0 0 0 0 0 0 0 127 0" result="hardAlpha"/>
<feOffset dx="1" dy="1"/>
<feColorMatrix type="matrix" values="0 0 0 0 0 0 0 0 0 0 0 0 0 0 0 0 0 0 0.3 0"/>
<feBlend mode="normal" in2="BackgroundImageFix" result="effect1_dropShadow_47_48"/>
<feBlend mode="normal" in="SourceGraphic" in2="effect1_dropShadow_47_48" result="shape"/>
</filter>
</defs>
</svg>
