<svg width="56" height="47" viewBox="0 0 56 47" fill="none" xmlns="http://www.w3.org/2000/svg">
<g filter="url(#filter0_bd_180_1522)">
<rect x="12" y="8" width="32" height="22.2584" rx="11.1292" fill="#FF0000" fill-opacity="0.5" shape-rendering="crispEdges"/>
<path d="M23.453 13.2178C23.3862 13.1497 23.3067 13.0954 23.219 13.058C23.1312 13.0207 23.037 13.001 22.9416 13C22.8462 12.9991 22.7516 13.017 22.6631 13.0526C22.5747 13.0883 22.4941 13.141 22.426 13.2078C21.656 13.9734 21.0451 14.8839 20.6287 15.8867C20.2124 16.8896 19.9987 17.965 20 19.0508C19.9988 20.1784 20.2293 21.2941 20.6772 22.3288C21.1252 23.3635 21.781 24.2951 22.604 25.0658C22.7425 25.1939 22.9255 25.2629 23.1141 25.2582C23.3027 25.2536 23.482 25.1756 23.614 25.0408C23.93 24.7248 23.891 24.2218 23.587 23.9308C22.9265 23.3014 22.4009 22.5442 22.0421 21.7053C21.6834 20.8663 21.4989 19.9632 21.5 19.0508C21.5 17.2048 22.241 15.5308 23.443 14.3128C23.733 14.0178 23.763 13.5278 23.453 13.2178ZM25.214 14.9808C25.0823 14.8453 24.9023 14.7675 24.7133 14.7645C24.5244 14.7615 24.3419 14.8336 24.206 14.9648C23.665 15.4988 23.2355 16.135 22.9426 16.8365C22.6497 17.538 22.4993 18.2907 22.5 19.0508C22.5 20.7428 23.23 22.2638 24.393 23.3148C24.5303 23.4361 24.7089 23.4999 24.8919 23.493C25.0749 23.4861 25.2483 23.4091 25.376 23.2778C25.704 22.9498 25.643 22.4338 25.335 22.1438C24.9128 21.747 24.5765 21.2677 24.3469 20.7357C24.1173 20.2037 23.9992 19.6303 24 19.0508C24 17.9008 24.457 16.8568 25.2 16.0908C25.486 15.7968 25.533 15.2978 25.214 14.9798V14.9808ZM30.786 14.9808C30.9177 14.8453 31.0978 14.7675 31.2867 14.7645C31.4756 14.7615 31.6581 14.8336 31.794 14.9648C32.3351 15.4988 32.7645 16.135 33.0574 16.8365C33.3503 17.538 33.5007 18.2907 33.5 19.0508C33.5 20.7428 32.77 22.2638 31.607 23.3148C31.4698 23.4361 31.2911 23.4999 31.1081 23.493C30.9251 23.4861 30.7517 23.4091 30.624 23.2778C30.296 22.9498 30.357 22.4338 30.665 22.1438C31.0872 21.747 31.4235 21.2677 31.6531 20.7357C31.8827 20.2037 32.0008 19.6303 32 19.0508C32 17.9008 31.543 16.8568 30.8 16.0908C30.514 15.7968 30.467 15.2978 30.786 14.9798V14.9808ZM32.547 13.2188C32.6138 13.1507 32.6933 13.0964 32.7811 13.059C32.8688 13.0217 32.9631 13.002 33.0584 13.001C33.1538 13.0001 33.2484 13.018 33.3369 13.0536C33.4254 13.0893 33.5059 13.142 33.574 13.2088C34.3439 13.9743 34.9547 14.8846 35.3711 15.8873C35.7875 16.89 36.0012 17.9651 36 19.0508C36.0013 20.1784 35.7708 21.2941 35.3228 22.3288C34.8749 23.3635 34.219 24.2951 33.396 25.0658C33.2575 25.1939 33.0745 25.2629 32.8859 25.2582C32.6974 25.2536 32.518 25.1756 32.386 25.0408C32.07 24.7248 32.109 24.2218 32.414 23.9308C33.0743 23.3013 33.5997 22.544 33.9583 21.7051C34.3169 20.8662 34.5012 19.9632 34.5 19.0508C34.5 17.2048 33.759 15.5308 32.557 14.3128C32.267 14.0178 32.237 13.5278 32.547 13.2178V13.2188ZM28 17.5508C27.6022 17.5508 27.2207 17.7089 26.9393 17.9902C26.658 18.2715 26.5 18.653 26.5 19.0508C26.5 19.4487 26.658 19.8302 26.9393 20.1115C27.2207 20.3928 27.6022 20.5508 28 20.5508C28.3978 20.5508 28.7794 20.3928 29.0607 20.1115C29.342 19.8302 29.5 19.4487 29.5 19.0508C29.5 18.653 29.342 18.2715 29.0607 17.9902C28.7794 17.7089 28.3978 17.5508 28 17.5508Z" fill="white"/>
</g>
<defs>
<filter id="filter0_bd_180_1522" x="-4" y="-8" width="64" height="54.2584" filterUnits="userSpaceOnUse" color-interpolation-filters="sRGB">
<feFlood flood-opacity="0" result="BackgroundImageFix"/>
<feGaussianBlur in="BackgroundImage" stdDeviation="8"/>
<feComposite in2="SourceAlpha" operator="in" result="effect1_backgroundBlur_180_1522"/>
<feColorMatrix in="SourceAlpha" type="matrix" values="0 0 0 0 0 0 0 0 0 0 0 0 0 0 0 0 0 0 127 0" result="hardAlpha"/>
<feOffset dy="4"/>
<feGaussianBlur stdDeviation="6"/>
<feComposite in2="hardAlpha" operator="out"/>
<feColorMatrix type="matrix" values="0 0 0 0 0 0 0 0 0 0 0 0 0 0 0 0 0 0 0.12 0"/>
<feBlend mode="normal" in2="effect1_backgroundBlur_180_1522" result="effect2_dropShadow_180_1522"/>
<feBlend mode="normal" in="SourceGraphic" in2="effect2_dropShadow_180_1522" result="shape"/>
</filter>
</defs>
</svg>
