<svg width="76" height="23" viewBox="0 0 76 23" fill="none" xmlns="http://www.w3.org/2000/svg">
<g filter="url(#filter0_b_180_1408)">
<rect width="76" height="23" rx="11.5" fill="#554B4B" fill-opacity="0.5"/>
<g filter="url(#filter1_d_180_1408)">
<path d="M33.851 9.644V10.634H35.578V12.801C35.105 13.065 34.401 13.208 33.664 13.208C31.948 13.208 30.639 11.866 30.639 10.106C30.639 8.401 31.794 7.004 33.576 7.004C34.357 7.004 35.094 7.213 35.732 7.829L36.48 7.026C35.875 6.399 35.006 6.014 33.576 6.014C31.2 6.014 29.517 7.796 29.517 10.106C29.517 12.317 31.046 14.198 33.686 14.198C34.632 14.198 35.875 13.945 36.634 13.483V9.644H33.851ZM39.1125 11.393C39.1125 10.337 39.7725 9.578 40.8285 9.578C41.8845 9.578 42.5445 10.337 42.5445 11.393C42.5445 12.449 41.8845 13.208 40.8285 13.208C39.7725 13.208 39.1125 12.449 39.1125 11.393ZM38.0565 11.393C38.0565 12.911 39.2775 14.132 40.8285 14.132C42.3795 14.132 43.6005 12.911 43.6005 11.393C43.6005 9.875 42.3795 8.654 40.8285 8.654C39.2775 8.654 38.0565 9.875 38.0565 11.393ZM48.1553 14H52.7863V13.01H49.2113V6.212H48.1553V14ZM53.6834 14H54.6734V8.786H53.6834V14ZM53.4524 6.916C53.4524 7.312 53.7824 7.642 54.1784 7.642C54.5744 7.642 54.9044 7.312 54.9044 6.916C54.9044 6.52 54.5744 6.19 54.1784 6.19C53.7824 6.19 53.4524 6.52 53.4524 6.916ZM57.745 14H58.834L60.88 8.786H59.824L58.328 12.779L56.766 8.786H55.622L57.745 14ZM66.677 11.756V11.404C66.677 10.062 65.973 8.654 64.136 8.654C62.574 8.654 61.441 9.831 61.441 11.393C61.441 12.944 62.475 14.132 64.125 14.132C65.126 14.132 65.885 13.78 66.435 13.065L65.687 12.493C65.302 12.966 64.862 13.274 64.257 13.274C63.344 13.274 62.497 12.669 62.497 11.756H66.677ZM62.497 10.964C62.497 10.271 63.135 9.446 64.114 9.446C65.115 9.446 65.599 10.095 65.621 10.964H62.497Z" fill="white"/>
</g>
<path d="M11.453 5.21783C11.3862 5.14971 11.3067 5.09542 11.219 5.05805C11.1312 5.02068 11.037 5.00096 10.9416 5.00003C10.8462 4.99911 10.7516 5.01698 10.6631 5.05263C10.5747 5.08829 10.4941 5.14102 10.426 5.20783C9.65596 5.97341 9.04512 6.88389 8.62874 7.88674C8.21235 8.8896 7.99867 9.96497 8.00001 11.0508C7.99876 12.1784 8.22926 13.2941 8.67721 14.3288C9.12516 15.3635 9.78099 16.2951 10.604 17.0658C10.7425 17.1939 10.9255 17.2629 11.1141 17.2582C11.3027 17.2536 11.482 17.1756 11.614 17.0408C11.93 16.7248 11.891 16.2218 11.587 15.9308C10.9265 15.3014 10.4009 14.5442 10.0421 13.7053C9.68335 12.8663 9.49891 11.9632 9.50001 11.0508C9.50001 9.20483 10.241 7.53083 11.443 6.31283C11.733 6.01783 11.763 5.52783 11.453 5.21783ZM13.214 6.98083C13.0823 6.84532 12.9023 6.76754 12.7133 6.76454C12.5244 6.76154 12.3419 6.83356 12.206 6.96483C11.665 7.49878 11.2355 8.13501 10.9426 8.83648C10.6497 9.53795 10.4993 10.2907 10.5 11.0508C10.5 12.7428 11.23 14.2638 12.393 15.3148C12.5303 15.4361 12.7089 15.4999 12.8919 15.493C13.0749 15.4861 13.2483 15.4091 13.376 15.2778C13.704 14.9498 13.643 14.4338 13.335 14.1438C12.9128 13.747 12.5765 13.2677 12.3469 12.7357C12.1173 12.2037 11.9992 11.6303 12 11.0508C12 9.90083 12.457 8.85683 13.2 8.09083C13.486 7.79683 13.533 7.29783 13.214 6.97983V6.98083ZM18.786 6.98083C18.9177 6.84532 19.0978 6.76754 19.2867 6.76454C19.4756 6.76154 19.6581 6.83356 19.794 6.96483C20.3351 7.49878 20.7645 8.13501 21.0574 8.83648C21.3503 9.53795 21.5007 10.2907 21.5 11.0508C21.5 12.7428 20.77 14.2638 19.607 15.3148C19.4698 15.4361 19.2911 15.4999 19.1081 15.493C18.9251 15.4861 18.7517 15.4091 18.624 15.2778C18.296 14.9498 18.357 14.4338 18.665 14.1438C19.0872 13.747 19.4235 13.2677 19.6531 12.7357C19.8827 12.2037 20.0008 11.6303 20 11.0508C20 9.90083 19.543 8.85683 18.8 8.09083C18.514 7.79683 18.467 7.29783 18.786 6.97983V6.98083ZM20.547 5.21883C20.6138 5.15071 20.6933 5.09642 20.7811 5.05905C20.8688 5.02168 20.9631 5.00196 21.0584 5.00103C21.1538 5.00011 21.2484 5.01798 21.3369 5.05363C21.4254 5.08929 21.5059 5.14202 21.574 5.20883C22.3439 5.97429 22.9547 6.88461 23.3711 7.88728C23.7875 8.88995 24.0012 9.96514 24 11.0508C24.0013 12.1784 23.7708 13.2941 23.3228 14.3288C22.8749 15.3635 22.219 16.2951 21.396 17.0658C21.2575 17.1939 21.0745 17.2629 20.8859 17.2582C20.6974 17.2536 20.518 17.1756 20.386 17.0408C20.07 16.7248 20.109 16.2218 20.414 15.9308C21.0743 15.3013 21.5997 14.544 21.9583 13.7051C22.3169 12.8662 22.5012 11.9632 22.5 11.0508C22.5 9.20483 21.759 7.53083 20.557 6.31283C20.267 6.01783 20.237 5.52783 20.547 5.21783V5.21883ZM16 9.55083C15.6022 9.55083 15.2207 9.70887 14.9393 9.99017C14.658 10.2715 14.5 10.653 14.5 11.0508C14.5 11.4487 14.658 11.8302 14.9393 12.1115C15.2207 12.3928 15.6022 12.5508 16 12.5508C16.3978 12.5508 16.7794 12.3928 17.0607 12.1115C17.342 11.8302 17.5 11.4487 17.5 11.0508C17.5 10.653 17.342 10.2715 17.0607 9.99017C16.7794 9.70887 16.3978 9.55083 16 9.55083Z" fill="white"/>
<rect x="0.5" y="0.5" width="75" height="22" rx="11" stroke="white"/>
</g>
<defs>
<filter id="filter0_b_180_1408" x="-16" y="-16" width="108" height="55" filterUnits="userSpaceOnUse" color-interpolation-filters="sRGB">
<feFlood flood-opacity="0" result="BackgroundImageFix"/>
<feGaussianBlur in="BackgroundImage" stdDeviation="8"/>
<feComposite in2="SourceAlpha" operator="in" result="effect1_backgroundBlur_180_1408"/>
<feBlend mode="normal" in="SourceGraphic" in2="effect1_backgroundBlur_180_1408" result="shape"/>
</filter>
<filter id="filter1_d_180_1408" x="25.5171" y="2.34401" width="45.1599" height="16.184" filterUnits="userSpaceOnUse" color-interpolation-filters="sRGB">
<feFlood flood-opacity="0" result="BackgroundImageFix"/>
<feColorMatrix in="SourceAlpha" type="matrix" values="0 0 0 0 0 0 0 0 0 0 0 0 0 0 0 0 0 0 127 0" result="hardAlpha"/>
<feOffset dy="0.33"/>
<feGaussianBlur stdDeviation="2"/>
<feColorMatrix type="matrix" values="0 0 0 0 0 0 0 0 0 0 0 0 0 0 0 0 0 0 0.1 0"/>
<feBlend mode="normal" in2="BackgroundImageFix" result="effect1_dropShadow_180_1408"/>
<feBlend mode="normal" in="SourceGraphic" in2="effect1_dropShadow_180_1408" result="shape"/>
</filter>
</defs>
</svg>
