<svg width="18" height="20" viewBox="0 0 18 20" fill="none" xmlns="http://www.w3.org/2000/svg">
<path d="M14.6889 8.28889H2.71111C1.76609 8.28889 1 9.05498 1 10V16.8444C1 17.7895 1.76609 18.5556 2.71111 18.5556H14.6889C15.6339 18.5556 16.4 17.7895 16.4 16.8444V10C16.4 9.05498 15.6339 8.28889 14.6889 8.28889Z" stroke="white" stroke-width="1.5" stroke-linecap="round" stroke-linejoin="round"/>
<path d="M3.56665 8.28889V4.01111C3.56665 3.33039 3.83707 2.67755 4.31841 2.1962C4.79975 1.71486 5.45259 1.44444 6.13332 1.44444H11.2667C11.9474 1.44444 12.6002 1.71486 13.0816 2.1962C13.5629 2.67755 13.8333 3.33039 13.8333 4.01111V4.86666" stroke="white" stroke-width="1.5" stroke-linecap="round" stroke-linejoin="round"/>
</svg>
