<svg xmlns="http://www.w3.org/2000/svg" width="25.5" height="25.5" viewBox="0 0 25.5 25.5">
  <path id="Vector" d="M23.582,4.624A2.869,2.869,0,0,1,25.5,7.331v12.75A5.419,5.419,0,0,1,20.081,25.5H7.331a2.869,2.869,0,0,1-2.707-1.918l2.674.005H20.081a3.506,3.506,0,0,0,3.506-3.506V7.331l-.005-.065ZM19.439,0a2.869,2.869,0,0,1,2.869,2.869V19.44a2.869,2.869,0,0,1-2.869,2.869H2.869A2.869,2.869,0,0,1,0,19.44V2.869A2.869,2.869,0,0,1,2.869,0h16.57ZM11.156,6.056a.956.956,0,0,0-.947.826l-.009.13V10.2H7.013a.956.956,0,0,0-.13,1.9l.13.009H10.2V15.3a.956.956,0,0,0,1.9.13l.009-.13V12.112H15.3a.956.956,0,0,0,.13-1.9L15.3,10.2H12.112V7.013a.956.956,0,0,0-.956-.956Z" fill="#fff"/>
</svg>
