<svg width="19" height="20" viewBox="0 0 19 20" fill="none" xmlns="http://www.w3.org/2000/svg">
<path opacity="0.5" fill-rule="evenodd" clip-rule="evenodd" d="M13.372 15.2723C11.9762 16.2951 10.2438 16.9011 8.36677 16.9011C3.74603 16.9011 0 13.2295 0 8.70054C0 4.1716 3.74603 0.5 8.36677 0.5C12.9875 0.5 16.7335 4.1716 16.7335 8.70054C16.7335 10.7331 15.9791 12.593 14.7297 14.0259L18.8638 18.0779C19.0454 18.2558 19.0454 18.5443 18.8638 18.7221L18.2065 19.3665C18.025 19.5445 17.7306 19.5445 17.5493 19.3665L13.372 15.2723ZM14.8743 8.70054C14.8743 12.2231 11.9607 15.0787 8.36677 15.0787C4.77281 15.0787 1.85928 12.2231 1.85928 8.70054C1.85928 5.17798 4.77281 2.32234 8.36677 2.32234C11.9607 2.32234 14.8743 5.17798 14.8743 8.70054Z" fill="white"/>
</svg>
