<svg width="19" height="18" viewBox="0 0 19 18" fill="none" xmlns="http://www.w3.org/2000/svg">
<path fill-rule="evenodd" clip-rule="evenodd" d="M18.7608 1.11209C18.6086 0.849359 18.3272 0.6875 18.0227 0.6875H0.97729C0.639884 0.6875 0.334244 0.885828 0.197806 1.1933C0.0613687 1.50077 0.119822 1.85948 0.346884 2.10815L4.79574 6.98031C5.03141 7.23844 5.40156 7.32664 5.72899 7.20266L11.9077 4.86273C11.9796 4.83555 12.0122 4.8468 12.0264 4.85242C12.0513 4.86227 12.087 4.88789 12.115 4.93516C12.143 4.98242 12.1483 5.02594 12.1449 5.05242C12.143 5.06758 12.1371 5.10148 12.0785 5.15102L7.00555 9.4382C6.74414 9.65914 6.64102 10.0147 6.74375 10.3405L8.68696 16.4992C8.78836 16.8205 9.07078 17.0518 9.40688 17.0887C9.74289 17.1255 10.0691 16.9609 10.2381 16.6691L18.7608 1.96128C18.913 1.69855 18.913 1.37484 18.7608 1.11209Z" fill="#B0B0B3"/>
</svg>
