<svg width="22" height="21" viewBox="0 0 22 21" fill="black" xmlns="http://www.w3.org/2000/svg">
<path d="M8.11317 20.1464C6.46587 19.6546 4.97398 18.7446 3.78272 17.5051C4.166 17.0505 4.40493 16.4919 4.46893 15.9007C4.53293 15.3096 4.4191 14.7127 4.14199 14.1867C3.86487 13.6606 3.4371 13.2291 2.91339 12.9475C2.38968 12.6659 1.79386 12.547 1.20218 12.606C1.06739 11.9457 0.999649 11.2735 1 10.5996C1 9.5588 1.15936 8.55487 1.45615 7.6117H1.49798C2.0058 7.61186 2.50528 7.48259 2.94927 7.23609C3.39325 6.9896 3.76708 6.63401 4.03546 6.2029C4.30384 5.7718 4.45792 5.2794 4.48314 4.77221C4.50836 4.26502 4.4039 3.75976 4.17961 3.30416C5.34717 2.21698 6.75918 1.42668 8.29642 1C8.5466 1.49121 8.92779 1.90364 9.39781 2.19164C9.86784 2.47965 10.4084 2.63202 10.9596 2.63188C11.5109 2.63202 12.0514 2.47965 12.5214 2.19164C12.9915 1.90364 13.3727 1.49121 13.6228 1C15.1601 1.42668 16.5721 2.21698 17.7396 3.30416C17.5137 3.76295 17.4093 4.27206 17.4365 4.78274C17.4636 5.29343 17.6214 5.78859 17.8947 6.22085C18.168 6.6531 18.5477 7.00798 18.9974 7.2515C19.4471 7.49502 19.9517 7.61905 20.4631 7.6117C20.7663 8.57864 20.9202 9.58621 20.9193 10.5996C20.9193 11.2868 20.8495 11.9581 20.7171 12.606C20.1254 12.547 19.5296 12.6659 19.0059 12.9475C18.4822 13.2291 18.0544 13.6606 17.7773 14.1867C17.5002 14.7127 17.3863 15.3096 17.4503 15.9007C17.5143 16.4919 17.7532 17.0505 18.1365 17.5051C16.9453 18.7446 15.4534 19.6546 13.8061 20.1464C13.6126 19.5435 13.2328 19.0176 12.7212 18.6444C12.2096 18.2713 11.5928 18.0703 10.9596 18.0703C10.3264 18.0703 9.70962 18.2713 9.19805 18.6444C8.68649 19.0176 8.30661 19.5435 8.11317 20.1464Z" stroke="black" stroke-width="1.35813" stroke-linejoin="round"/>
</svg>
