<svg width="93" height="84" viewBox="0 0 93 84" fill="none" xmlns="http://www.w3.org/2000/svg">
<path d="M53.586 18.5634C54.3758 18.5634 55.052 19.1629 55.1303 19.9654C55.2142 20.8198 54.59 21.58 53.7355 21.6639C53.0521 21.731 36.9717 23.3097 35.358 23.4064C34.7617 23.4423 34.1119 23.7972 34.0967 24.4934C34.0903 24.79 34.199 25.0713 34.4036 25.2855C34.6082 25.4998 34.8848 25.6212 35.1806 25.6276C36.6201 25.6596 60.2202 25.7451 60.4596 25.7459C60.4708 25.7459 60.4819 25.7459 60.4931 25.7467C62.1317 25.7875 63.0517 26.5157 63.5361 27.1191C64.4609 28.2733 64.6791 30.0086 64.2027 32.425C64.1459 32.7151 64.0628 33.0612 63.9669 33.4609C63.5065 35.3832 62.5473 39.3829 63.9885 41.1389C64.4313 41.6784 65.1371 42.0126 66.0963 42.1373C66.0196 40.2645 66.1339 36.9777 68.9219 33.0883C70.634 30.7007 72.9657 29.3803 75.0221 28.2164C77.6263 26.7425 79.6828 25.5786 80.2265 22.7131C80.3863 21.8698 81.2008 21.3159 82.0425 21.4758C82.8858 21.6356 83.4397 22.4485 83.2798 23.2918C82.4677 27.5729 79.3257 29.3513 76.5537 30.9203C74.6034 32.0241 72.761 33.0672 71.4478 34.8984C68.9882 38.3299 69.1441 41.0634 69.2288 42.5326C69.2768 43.3679 69.3216 44.156 68.7085 44.7779C68.3808 45.1104 67.9443 45.2911 67.4719 45.2927C64.8319 45.387 62.8528 44.6524 61.5866 43.1098C59.1663 40.1595 60.3229 35.3309 60.9448 32.7364C61.0327 32.3696 61.1086 32.0522 61.1534 31.8244C61.561 29.7551 61.1893 29.1611 61.1102 29.0629C60.9831 28.9038 60.6722 28.8606 60.4292 28.8535C59.2151 28.8495 36.5723 28.7671 35.1113 28.7344C33.9851 28.7088 32.9364 28.2468 32.157 27.4331C31.3785 26.6186 30.9636 25.5507 30.9884 24.4237C31.0372 22.2152 32.8356 20.444 35.1711 20.3041C36.4156 20.2297 47.6594 19.1379 53.4312 18.5712C53.4847 18.5656 53.5359 18.5632 53.587 18.5632L53.586 18.5634Z" fill="#014BC3"/>
<path d="M53.6577 12.31C53.9766 12.31 54.3035 12.3172 54.6409 12.3316C55.4985 12.3691 56.1627 13.0941 56.1252 13.9518C56.0876 14.8086 55.3618 15.4784 54.505 15.4361C51.6012 15.309 49.5957 15.8301 48.9994 16.866C48.5262 17.6861 48.8915 18.9681 49.431 19.8122C49.893 20.5356 49.6812 21.4955 48.9586 21.9583C48.2353 22.4203 47.2745 22.2085 46.8126 21.4859C45.7799 19.8705 45.1052 17.4006 46.3074 15.3145C47.4576 13.3186 49.9282 12.3098 53.6578 12.3098L53.6577 12.31Z" fill="#014BC3"/>
<path d="M54.9959 6.25505C55.3157 6.25505 55.6442 6.26225 55.9823 6.27743C56.8399 6.315 57.5041 7.03998 57.4666 7.89763C57.429 8.75449 56.7032 9.4243 55.8464 9.38194C52.936 9.25645 50.9242 9.776 50.3279 10.8119C49.8579 11.6264 50.2208 12.8997 50.7564 13.7374C51.2184 14.4608 51.0066 15.4207 50.284 15.8835C49.5606 16.3455 48.5998 16.1336 48.1379 15.4111C47.1092 13.8013 46.437 11.3401 47.6359 9.26033C48.7853 7.26367 51.26 6.25485 54.996 6.25485L54.9959 6.25505Z" fill="#014BC3"/>
<path d="M64.5436 -4.99804e-05C67.075 -5.02017e-05 70.0085 0.147021 73.4119 0.481936C78.1191 0.944729 80.9381 2.22043 83.4257 3.34501C85.8069 4.42167 87.8628 5.35206 91.263 5.35206C92.1214 5.35206 92.8168 6.04745 92.8168 6.90592C92.8168 7.76437 92.1214 8.45978 91.263 8.45978C87.1928 8.45978 84.7406 7.35114 82.1452 6.17702C79.7657 5.10116 77.3063 3.98859 73.1083 3.57525C56.016 1.89351 52.7635 5.24339 52.2839 5.9325C52.0401 6.28338 51.8211 6.81094 52.2951 7.78289C52.6716 8.55422 52.3518 9.48461 51.5805 9.86104C50.8092 10.2383 49.8788 9.91778 49.5024 9.14645C48.6407 7.38239 48.7222 5.6112 49.7318 4.15961C51.1425 2.12778 54.92 0.000875925 64.5429 5.58775e-05L64.5436 -4.99804e-05Z" fill="#014BC3"/>
<path d="M25.7889 38.2966C28.2075 38.2966 30.0356 39.0328 31.2298 40.4875C33.65 43.4369 32.4935 48.2664 31.8716 50.8608C31.7837 51.2277 31.7078 51.545 31.663 51.7736C31.2554 53.8429 31.627 54.437 31.7062 54.5352C31.8341 54.6942 32.1434 54.7374 32.3872 54.7446C33.6013 54.7486 56.2441 54.8309 57.7051 54.8637C58.8313 54.8893 59.88 55.3513 60.6594 56.165C61.4379 56.9795 61.8527 58.0473 61.828 59.1735C61.7784 61.3828 59.9808 63.154 57.6453 63.2932C56.4008 63.3675 45.157 64.4594 39.386 65.0261C38.5348 65.1124 37.7714 64.4858 37.6875 63.6313C37.6036 62.7768 38.2278 62.0167 39.0823 61.9328C39.7657 61.8656 55.847 60.287 57.4598 60.1903C58.0569 60.1543 58.7059 59.7994 58.7219 59.1032C58.7355 58.491 58.2487 57.9826 57.6373 57.969C56.1977 57.937 32.5956 57.8515 32.3583 57.8507L32.3247 57.8507C30.6861 57.81 29.7661 57.0818 29.2817 56.4775C28.357 55.3233 28.1388 53.588 28.6151 51.1717C28.6727 50.8815 28.755 50.5354 28.8509 50.1358C29.3113 48.2134 30.2705 44.2138 28.8293 42.4577C28.3865 41.9182 27.6799 41.5849 26.7215 41.4594C26.7983 43.3322 26.684 46.6189 23.8959 50.5084C22.1838 52.8959 19.8522 54.2164 17.7957 55.3803C15.1915 56.8542 13.135 58.018 12.5914 60.8836C12.4315 61.7268 11.6186 62.2807 10.7753 62.1209C9.93206 61.961 9.37816 61.1481 9.53801 60.3049C10.3501 56.0238 13.4921 54.2454 16.2641 52.6764C18.2144 51.5725 20.0568 50.5295 21.3701 48.6983C23.8296 45.2668 23.6737 42.5332 23.589 41.0641C23.541 40.2288 23.4963 39.4407 24.1093 38.8187C24.4371 38.4862 24.8735 38.3056 25.3459 38.304C25.4937 38.3 25.6416 38.2968 25.7879 38.2968L25.7889 38.2966Z" fill="#014BC3"/>
<path d="M44.6919 61.3942C45.2042 61.3942 45.7062 61.6476 46.0027 62.1112C47.0354 63.7266 47.71 66.1965 46.5079 68.2826C45.2594 70.4487 42.4545 71.4526 38.1736 71.2647C37.316 71.2272 36.6518 70.5022 36.6893 69.6445C36.7269 68.7869 37.4519 68.1211 38.3095 68.1602C41.2103 68.2865 43.2188 67.7662 43.8151 66.7303C44.2883 65.9102 43.923 64.6282 43.3835 63.7841C42.9215 63.0607 43.1333 62.1 43.8559 61.638C44.1156 61.4734 44.4058 61.3943 44.6919 61.3943L44.6919 61.3942Z" fill="#014BC3"/>
<path d="M43.368 67.4696C43.8803 67.4696 44.3823 67.7229 44.6788 68.1865C45.7075 69.7963 46.3797 72.2575 45.1808 74.3373C43.9322 76.5034 41.126 77.5065 36.8336 77.3194C35.9768 77.2819 35.3117 76.5569 35.3493 75.6992C35.3869 74.8416 36.1111 74.1766 36.9695 74.2149C39.8782 74.342 41.8917 73.8209 42.488 72.785C42.958 71.9705 42.5951 70.6972 42.0595 69.8595C41.5975 69.1361 41.8093 68.1753 42.5319 67.7134C42.7917 67.5488 43.0818 67.4696 43.368 67.4696L43.368 67.4696Z" fill="#014BC3"/>
<path d="M41.9152 73.5795C42.4907 73.5795 43.043 73.9 43.3123 74.4515C44.174 76.2156 44.0925 77.9859 43.0837 79.4383C41.3021 82.0025 35.7476 84.7225 19.4049 83.1144C14.6978 82.6516 11.8787 81.3767 9.39109 80.2513C7.0099 79.1746 4.95406 78.2443 1.55385 78.2443C0.6954 78.2443 3.286e-06 77.5489 3.21095e-06 76.6904C3.1359e-06 75.8319 0.69538 75.1365 1.55385 75.1365C5.62399 75.1365 8.07618 76.2452 10.6716 77.4193C13.0503 78.4952 15.5105 79.6077 19.7085 80.0211C36.7992 81.702 40.0533 78.3529 40.5329 77.6638C40.7767 77.3129 40.9957 76.7854 40.5217 75.8134C40.1453 75.0421 40.465 74.1117 41.2363 73.7353C41.4553 73.6298 41.6879 73.5794 41.9165 73.5794L41.9152 73.5795Z" fill="#014BC3"/>
<path d="M51.954 41.9439C52.3129 42.1511 52.3129 42.6691 51.954 42.8764L43.4744 47.772C43.1155 47.9793 42.6669 47.7202 42.6669 47.3058L42.6669 37.5145C42.6669 37.1 43.1155 36.841 43.4744 37.0482L51.954 41.9439Z" fill="white"/>
</svg>
