<svg width="16" height="18" viewBox="0 0 16 18" fill="none" xmlns="http://www.w3.org/2000/svg">
<path d="M8 18C8.55049 18.0007 9.08752 17.8277 9.53644 17.5051C9.98535 17.1826 10.3239 16.7264 10.5049 16.2H5.49511C5.67614 16.7264 6.01465 17.1826 6.46356 17.5051C6.91248 17.8277 7.44951 18.0007 8 18ZM14.2222 11.3274V7.2C14.2222 4.3047 12.28 1.8657 9.64889 1.1322C9.38844 0.468 8.752 0 8 0C7.248 0 6.61156 0.468 6.35111 1.1322C3.72 1.8666 1.77778 4.3047 1.77778 7.2V11.3274L0.260445 12.8637C0.177741 12.9471 0.112152 13.0463 0.0674537 13.1555C0.0227557 13.2647 -0.000168399 13.3818 9.31265e-07 13.5V14.4C9.31265e-07 14.6387 0.0936514 14.8676 0.26035 15.0364C0.427049 15.2052 0.653142 15.3 0.88889 15.3H15.1111C15.3469 15.3 15.573 15.2052 15.7397 15.0364C15.9064 14.8676 16 14.6387 16 14.4V13.5C16.0002 13.3818 15.9772 13.2647 15.9325 13.1555C15.8878 13.0463 15.8223 12.9471 15.7396 12.8637L14.2222 11.3274Z" fill="white"/>
</svg>
