<svg width="16" height="18" viewBox="0 0 16 18" fill="none" xmlns="http://www.w3.org/2000/svg">
<path d="M0.0674537 13.1555C0.0227557 13.2647 -0.000168399 13.3818 0 13.5V14.4C0 14.6387 0.0936514 14.8676 0.26035 15.0364C0.427049 15.2052 0.653142 15.3 0.88889 15.3H15.1111C15.3469 15.3 15.573 15.2052 15.7397 15.0364M0.0674537 13.1555L0.807833 13.4586C0.802725 13.471 0.79998 13.4848 0.8 13.4989L0.800002 13.5L0.800001 14.4C0.800001 14.4297 0.81175 14.4562 0.829539 14.4742C0.846994 14.4919 0.868542 14.5 0.88889 14.5H15.1111C15.1315 14.5 15.153 14.4919 15.1705 14.4742L15.7397 15.0364M0.0674537 13.1555L0.807834 13.4586C0.812938 13.4461 0.820164 13.4354 0.828614 13.4269L0.829633 13.4259L2.34697 11.8896L2.57778 11.6559V11.3274V7.2C2.57778 4.66952 4.27521 2.54221 6.56619 1.90275L6.95031 1.79553L7.0959 1.42424C7.24205 1.05151 7.59286 0.8 8 0.8C8.40714 0.8 8.75795 1.05151 8.9041 1.42424L9.04974 1.79568L9.43406 1.90281C11.7246 2.54138 13.4222 4.66934 13.4222 7.2V11.3274V11.6559L13.653 11.8896L15.1704 13.4259L15.1714 13.4269C15.1798 13.4354 15.1871 13.4461 15.1922 13.4586C15.1973 13.471 15.2 13.4848 15.2 13.4988V13.5V14.4C15.2 14.4297 15.1883 14.4562 15.1705 14.4742L15.7397 15.0364M0.0674537 13.1555C0.112152 13.0463 0.177741 12.9471 0.260445 12.8637L1.77778 11.3274V7.2C1.77778 4.3047 3.72 1.8666 6.35111 1.1322C6.61156 0.468 7.248 0 8 0C8.752 0 9.38844 0.468 9.64889 1.1322C12.28 1.8657 14.2222 4.3047 14.2222 7.2V11.3274L15.7396 12.8637C15.8223 12.9471 15.8878 13.0463 15.9325 13.1555C15.9772 13.2647 16.0002 13.3818 16 13.5V14.4C16 14.6387 15.9064 14.8676 15.7397 15.0364M7.16726 17H8.83274C8.57541 17.1315 8.29062 17.2004 8.00102 17.2L7.99898 17.2C7.70938 17.2004 7.42459 17.1315 7.16726 17Z" stroke="#F0F0F0" stroke-width="1.6"/>
</svg>
