<svg width="19" height="20" viewBox="0 0 19 20" fill="none" xmlns="http://www.w3.org/2000/svg">
<path fill-rule="evenodd" clip-rule="evenodd" d="M13.372 15.5223C11.9762 16.5451 10.2438 17.1511 8.36677 17.1511C3.74603 17.1511 0 13.4795 0 8.95054C0 4.4216 3.74603 0.75 8.36677 0.75C12.9875 0.75 16.7335 4.4216 16.7335 8.95054C16.7335 10.9831 15.9791 12.843 14.7297 14.2759L18.8638 18.3279C19.0454 18.5058 19.0454 18.7943 18.8638 18.9721L18.2065 19.6165C18.025 19.7945 17.7306 19.7945 17.5493 19.6165L13.372 15.5223ZM14.8743 8.95054C14.8743 12.4731 11.9607 15.3287 8.36677 15.3287C4.77281 15.3287 1.85928 12.4731 1.85928 8.95054C1.85928 5.42798 4.77281 2.57234 8.36677 2.57234C11.9607 2.57234 14.8743 5.42798 14.8743 8.95054Z" fill="#F0F0F0"/>
</svg>
