<svg width="21" height="21" viewBox="0 0 21 21" fill="none" xmlns="http://www.w3.org/2000/svg">
<path fill-rule="evenodd" clip-rule="evenodd" d="M14.372 15.5223C12.9762 16.5451 11.2438 17.1511 9.36677 17.1511C4.74603 17.1511 1 13.4795 1 8.95054C1 4.4216 4.74603 0.75 9.36677 0.75C13.9875 0.75 17.7335 4.4216 17.7335 8.95054C17.7335 10.9831 16.9791 12.843 15.7297 14.2759L19.8638 18.3279C20.0454 18.5058 20.0454 18.7943 19.8638 18.9721L19.2065 19.6165C19.025 19.7945 18.7306 19.7945 18.5493 19.6165L14.372 15.5223ZM15.8743 8.95054C15.8743 12.4731 12.9607 15.3287 9.36677 15.3287C5.77281 15.3287 2.85928 12.4731 2.85928 8.95054C2.85928 5.42798 5.77281 2.57234 9.36677 2.57234C12.9607 2.57234 15.8743 5.42798 15.8743 8.95054Z" fill="white" stroke="white"/>
</svg>
