<svg width="23" height="21" viewBox="0 0 23 21" fill="none" xmlns="http://www.w3.org/2000/svg">
<path fill-rule="evenodd" clip-rule="evenodd" d="M11.9338 0.907846C11.6825 0.697386 11.3175 0.697384 11.0662 0.907845L1.32691 9.06418C0.677702 9.60787 1.06026 10.6698 1.90534 10.6698H3.39017L3.7561 18.0246C3.80419 18.9912 4.59798 19.75 5.56092 19.75H9.91881C10.2931 19.75 10.5965 19.4451 10.5965 19.069V13.3938C10.5965 13.1431 10.7987 12.9398 11.0482 12.9398H11.9518C12.2013 12.9398 12.4035 13.1431 12.4035 13.3938V19.069C12.4035 19.4451 12.7069 19.75 13.0812 19.75H17.4391C18.402 19.75 19.1958 18.9912 19.2439 18.0246L19.6098 10.6698H21.0947C21.9397 10.6698 22.3223 9.60787 21.6731 9.06418L11.9338 0.907846Z" stroke="#F0F0F0"/>
</svg>
