<svg width="21" height="20" viewBox="0 0 21 20" fill="none" xmlns="http://www.w3.org/2000/svg">
<path fill-rule="evenodd" clip-rule="evenodd" d="M10.9338 0.907846C10.6825 0.697386 10.3175 0.697384 10.0662 0.907845L0.326909 9.06418C-0.322298 9.60787 0.0602632 10.6698 0.90534 10.6698H2.39017L2.7561 18.0246C2.80419 18.9912 3.59798 19.75 4.56092 19.75H8.91881C9.29306 19.75 9.59646 19.4451 9.59646 19.069V13.3938C9.59646 13.1431 9.79873 12.9398 10.0482 12.9398H10.9518C11.2013 12.9398 11.4035 13.1431 11.4035 13.3938V19.069C11.4035 19.4451 11.7069 19.75 12.0812 19.75H16.4391C17.402 19.75 18.1958 18.9912 18.2439 18.0246L18.6098 10.6698H20.0947C20.9397 10.6698 21.3223 9.60787 20.6731 9.06418L10.9338 0.907846Z" fill="white"/>
</svg>
