<svg width="47" height="36" viewBox="0 0 47 36" fill="none" xmlns="http://www.w3.org/2000/svg">
<rect x="9" y="0.5" width="38" height="35" rx="14" fill="#014BC3"/>
<rect y="0.5" width="38" height="35" rx="14" fill="#014BC3"/>
<rect x="4" y="0.5" width="39" height="35" rx="14" fill="white"/>
<path d="M25.4076 10.684C25.6494 10.684 25.8565 10.8676 25.8805 11.1133C25.9062 11.3749 25.715 11.6077 25.4534 11.6334C25.2441 11.6539 20.3205 12.1373 19.8264 12.1669C19.6438 12.1779 19.4448 12.2866 19.4402 12.4997C19.4382 12.5905 19.4715 12.6767 19.5342 12.7423C19.5968 12.8079 19.6815 12.8451 19.772 12.847C20.2128 12.8568 27.4389 12.883 27.5122 12.8832C27.5157 12.8832 27.5191 12.8832 27.5225 12.8835C28.0242 12.896 28.3059 13.1189 28.4542 13.3037C28.7374 13.6571 28.8042 14.1884 28.6583 14.9283C28.641 15.0171 28.6155 15.1231 28.5861 15.2455C28.4452 15.8341 28.1515 17.0587 28.5928 17.5964C28.7283 17.7616 28.9444 17.8639 29.2381 17.9021C29.2147 17.3287 29.2497 16.3223 30.1033 15.1314C30.6276 14.4003 31.3415 13.996 31.9712 13.6397C32.7685 13.1884 33.3982 12.832 33.5647 11.9546C33.6136 11.6964 33.863 11.5268 34.1207 11.5758C34.3789 11.6247 34.5485 11.8736 34.4996 12.1318C34.2509 13.4426 33.2889 13.9872 32.4401 14.4676C31.8429 14.8056 31.2788 15.1249 30.8767 15.6856C30.1236 16.7363 30.1714 17.5733 30.1973 18.0232C30.212 18.2789 30.2257 18.5202 30.038 18.7107C29.9376 18.8125 29.804 18.8678 29.6594 18.8683C28.851 18.8971 28.245 18.6722 27.8573 18.1999C27.1163 17.2965 27.4704 15.818 27.6608 15.0237C27.6877 14.9113 27.711 14.8142 27.7247 14.7444C27.8495 14.1108 27.7357 13.9289 27.7115 13.8989C27.6725 13.8501 27.5773 13.8369 27.5029 13.8347C27.1312 13.8335 20.1982 13.8083 19.7508 13.7983C19.406 13.7904 19.0849 13.649 18.8463 13.3998C18.6079 13.1504 18.4809 12.8235 18.4885 12.4784C18.5034 11.8022 19.054 11.2598 19.7691 11.217C20.1502 11.1942 23.5929 10.8599 25.3602 10.6864C25.3766 10.6847 25.3923 10.6839 25.4079 10.6839L25.4076 10.684Z" fill="#014BC3" stroke="#014BC3" stroke-width="0.3"/>
<path d="M28.7628 5.00005C29.5378 5.00005 30.436 5.04508 31.4781 5.14763C32.9194 5.28933 33.7826 5.67993 34.5443 6.02427C35.2734 6.35393 35.9029 6.63881 36.944 6.63881C37.2068 6.63881 37.4197 6.85173 37.4197 7.11459C37.4197 7.37744 37.2068 7.59037 36.944 7.59037C35.6977 7.59037 34.9469 7.25091 34.1522 6.89141C33.4236 6.56199 32.6706 6.22133 31.3852 6.09477C26.1517 5.57983 25.1558 6.60554 25.0089 6.81654C24.9343 6.92397 24.8672 7.08551 25.0124 7.38311C25.1276 7.61928 25.0297 7.90416 24.7936 8.01942C24.5574 8.13494 24.2725 8.03679 24.1573 7.80062C23.8934 7.26048 23.9184 6.71816 24.2275 6.2737C24.6595 5.65157 25.8161 5.00033 28.7625 5.00008L28.7628 5.00005Z" fill="#014BC3" stroke="#014BC3" stroke-width="0.3"/>
<path d="M16.8962 16.7261C17.6368 16.7261 18.1966 16.9515 18.5622 17.3969C19.3033 18.3 18.9491 19.7788 18.7587 20.5731C18.7318 20.6855 18.7086 20.7826 18.6949 20.8526C18.57 21.4862 18.6838 21.6681 18.7081 21.6982C18.7472 21.7469 18.8419 21.7601 18.9166 21.7623C19.2883 21.7635 26.2213 21.7887 26.6687 21.7988C27.0135 21.8066 27.3346 21.9481 27.5733 22.1972C27.8116 22.4466 27.9387 22.7736 27.9311 23.1184C27.9159 23.7949 27.3655 24.3372 26.6504 24.3798C26.2693 24.4026 22.8266 24.7369 21.0596 24.9104C20.7989 24.9368 20.5652 24.745 20.5395 24.4833C20.5138 24.2217 20.7049 23.989 20.9666 23.9633C21.1758 23.9427 26.0998 23.4593 26.5936 23.4297C26.7764 23.4187 26.9751 23.3101 26.98 23.0969C26.9842 22.9094 26.8351 22.7538 26.6479 22.7496C26.2071 22.7398 18.9804 22.7136 18.9077 22.7134L18.8975 22.7134C18.3957 22.7009 18.114 22.4779 17.9657 22.2929C17.6826 21.9395 17.6158 21.4082 17.7616 20.6683C17.7792 20.5795 17.8045 20.4735 17.8338 20.3511C17.9748 19.7625 18.2685 18.5379 17.8272 18.0002C17.6916 17.835 17.4753 17.7329 17.1818 17.6945C17.2053 18.2679 17.1703 19.2743 16.3166 20.4652C15.7924 21.1963 15.0785 21.6006 14.4488 21.9569C13.6514 22.4082 13.0218 22.7646 12.8553 23.642C12.8063 23.9002 12.5574 24.0698 12.2992 24.0209C12.041 23.9719 11.8714 23.723 11.9204 23.4648C12.169 22.154 13.1311 21.6095 13.9799 21.129C14.577 20.7911 15.1411 20.4717 15.5433 19.911C16.2963 18.8603 16.2486 18.0233 16.2227 17.5735C16.208 17.3177 16.1943 17.0764 16.382 16.886C16.4823 16.7842 16.616 16.7288 16.7606 16.7284C16.8059 16.7271 16.8512 16.7262 16.8959 16.7262L16.8962 16.7261Z" fill="#014BC3" stroke="#014BC3" stroke-width="0.3"/>
<path d="M21.834 27.5293C22.0102 27.5293 22.1793 27.6275 22.2618 27.7963C22.5256 28.3365 22.5006 28.8786 22.1918 29.3233C21.6462 30.1084 19.9455 30.9412 14.9415 30.4488C13.5002 30.3071 12.6371 29.9168 11.8754 29.5722C11.1463 29.2425 10.5168 28.9576 9.4757 28.9576C9.21285 28.9576 8.99993 28.7447 8.99993 28.4819C8.99993 28.219 9.21285 28.0061 9.4757 28.0061C10.7219 28.0061 11.4728 28.3455 12.2675 28.7051C12.9958 29.0345 13.7491 29.3751 15.0345 29.5017C20.2675 30.0164 21.2639 28.9909 21.4107 28.7799C21.4854 28.6725 21.5524 28.511 21.4073 28.2133C21.292 27.9772 21.3899 27.6923 21.6261 27.577C21.6932 27.5447 21.7644 27.5293 21.8344 27.5293L21.834 27.5293Z" fill="#014BC3" stroke="#014BC3" stroke-width="0.3"/>
<path d="M25.7833 17.6192C26.0923 17.8333 26.0923 18.2902 25.7833 18.5043L22.3689 20.8698C22.0118 21.1172 21.5239 20.8617 21.5239 20.4273L21.5239 15.6961C21.5239 15.2618 22.0118 15.0062 22.3689 15.2536L25.7833 17.6192Z" fill="black"/>
</svg>
