<svg width="18" height="18" viewBox="0 0 18 18" fill="none" xmlns="http://www.w3.org/2000/svg">
<path d="M0.661911 7.9036C0.0221081 7.9036 -0.244993 7.03349 0.274717 6.63241L8.18218 0.543877C8.2951 0.456301 8.43145 0.409088 8.57144 0.409088C8.71144 0.409088 8.84778 0.456301 8.96071 0.543877L16.8682 6.63241C17.3879 7.0313 17.1208 7.9036 16.4789 7.9036H15.1972V16.1005H16.688C16.7791 16.1005 16.8537 16.1794 16.8537 16.2759V17.4156C16.8537 17.512 16.7791 17.5909 16.688 17.5909H0.454855C0.36375 17.5909 0.289211 17.512 0.289211 17.4156V16.2759C0.289211 16.1794 0.36375 16.1005 0.454855 16.1005H1.94566V7.9036H0.661911ZM8.57144 2.08902L2.95816 6.41105H14.1847L8.57144 2.08902ZM13.7064 7.9036H11.2839V16.1005H13.7064V7.9036ZM9.79307 7.9036H7.37052V16.1005H9.79307V7.9036ZM3.43646 16.1005H5.87972V7.9036H3.43646V16.1005Z" fill="white"/>
</svg>
