<svg width="20" height="16" viewBox="0 0 20 16" fill="none" xmlns="http://www.w3.org/2000/svg">
<path fill-rule="evenodd" clip-rule="evenodd" d="M2.25 2.25C1.83579 2.25 1.5 2.58579 1.5 3V13C1.5 13.4142 1.83579 13.75 2.25 13.75H12.25C12.6642 13.75 13 13.4142 13 13V3C13 2.58579 12.6642 2.25 12.25 2.25H2.25ZM0 3C0 1.75736 1.00736 0.75 2.25 0.75H12.25C13.4926 0.75 14.5 1.75736 14.5 3V6.51576L17.6568 4.18969C18.3171 3.70318 19.25 4.1746 19.25 4.99475V11.0053C19.25 11.8254 18.3171 12.2968 17.6568 11.8103L14.5 9.48424V13C14.5 14.2426 13.4926 15.25 12.25 15.25H2.25C1.00736 15.25 0 14.2426 0 13V3ZM15.0143 8L17.75 10.0158V5.98424L15.0143 8Z" fill="white"/>
</svg>
