<svg width="18" height="18" viewBox="0 0 18 18" fill="none" xmlns="http://www.w3.org/2000/svg">
<path d="M16.0801 3.68917C16.4465 3.81794 16.7639 4.05731 16.9884 4.37423C17.2129 4.69114 17.3335 5.06995 17.3334 5.45833V13.7917C17.3334 14.731 16.9603 15.6318 16.2961 16.296C15.6319 16.9602 14.7311 17.3333 13.7917 17.3333H5.45842C5.07003 17.3334 4.69122 17.2128 4.37431 16.9883C4.05739 16.7638 3.81802 16.4464 3.68925 16.08L5.43675 16.0833H13.7917C14.3995 16.0833 14.9824 15.8419 15.4122 15.4121C15.842 14.9824 16.0834 14.3995 16.0834 13.7917V5.45833L16.0801 5.41583V3.68917ZM13.3717 0.666668C13.869 0.666668 14.3459 0.864212 14.6976 1.21584C15.0492 1.56747 15.2467 2.04439 15.2467 2.54167V13.3725C15.2467 13.8698 15.0492 14.3467 14.6976 14.6983C14.3459 15.05 13.869 15.2475 13.3717 15.2475H2.54175C2.04447 15.2475 1.56755 15.05 1.21592 14.6983C0.864292 14.3467 0.666748 13.8698 0.666748 13.3725V2.54167C0.666748 2.04439 0.864292 1.56747 1.21592 1.21584C1.56755 0.864212 2.04447 0.666668 2.54175 0.666668H13.3726H13.3717ZM13.3717 1.91667H2.54175C2.37599 1.91667 2.21702 1.98252 2.09981 2.09973C1.9826 2.21694 1.91675 2.37591 1.91675 2.54167V13.3725C1.91675 13.7175 2.19675 13.9975 2.54175 13.9975H13.3726C13.5383 13.9975 13.6973 13.9317 13.8145 13.8144C13.9317 13.6972 13.9976 13.5383 13.9976 13.3725V2.54167C13.9976 2.37591 13.9317 2.21694 13.8145 2.09973C13.6973 1.98252 13.5383 1.91667 13.3726 1.91667H13.3717ZM7.95842 4.625C8.12418 4.625 8.28315 4.69085 8.40036 4.80806C8.51757 4.92527 8.58342 5.08424 8.58342 5.25V7.33333H10.6667C10.8325 7.33333 10.9915 7.39918 11.1087 7.51639C11.2259 7.6336 11.2917 7.79257 11.2917 7.95833C11.2917 8.1241 11.2259 8.28307 11.1087 8.40028C10.9915 8.51749 10.8325 8.58333 10.6667 8.58333H8.58342V10.6667C8.58342 10.8324 8.51757 10.9914 8.40036 11.1086C8.28315 11.2258 8.12418 11.2917 7.95842 11.2917C7.79265 11.2917 7.63368 11.2258 7.51647 11.1086C7.39926 10.9914 7.33342 10.8324 7.33342 10.6667V8.58333H5.25008C5.08432 8.58333 4.92535 8.51749 4.80814 8.40028C4.69093 8.28307 4.62508 8.1241 4.62508 7.95833C4.62508 7.79257 4.69093 7.6336 4.80814 7.51639C4.92535 7.39918 5.08432 7.33333 5.25008 7.33333H7.33342V5.25C7.33342 5.08424 7.39926 4.92527 7.51647 4.80806C7.63368 4.69085 7.79265 4.625 7.95842 4.625Z" fill="white"/>
</svg>
