<svg width="19" height="14" viewBox="0 0 19 14" fill="none" xmlns="http://www.w3.org/2000/svg">
<path d="M17.3478 0H0.913043C0.670976 0.000281919 0.438903 0.0965678 0.267736 0.267736C0.0965679 0.438903 0.000281919 0.670976 0 0.913043V13.087C0.000281919 13.329 0.0965679 13.5611 0.267736 13.7323C0.438903 13.9034 0.670976 13.9997 0.913043 14H17.3478C17.5899 13.9997 17.822 13.9034 17.9931 13.7323C18.1643 13.5611 18.2606 13.329 18.2609 13.087V0.913043C18.2606 0.670976 18.1643 0.438903 17.9931 0.267736C17.822 0.0965678 17.5899 0.000281919 17.3478 0ZM17.0435 1.21739V3.65217H1.21739V1.21739H17.0435ZM1.21739 12.7826V6.08696H17.0435V12.7826H1.21739Z" fill="white"/>
</svg>
