<svg width="18" height="18" viewBox="0 0 18 18" fill="none" xmlns="http://www.w3.org/2000/svg">
<path d="M4.4301 10.9358L3.18844 16.3125C3.14999 16.4753 3.16153 16.6459 3.22156 16.8021C3.28158 16.9582 3.3873 17.0926 3.52491 17.1878C3.66252 17.2829 3.82561 17.3343 3.9929 17.3353C4.16018 17.3363 4.32388 17.2868 4.4626 17.1933L9.0001 14.1683L13.5376 17.1933C13.6795 17.2876 13.847 17.3361 14.0173 17.3324C14.1876 17.3286 14.3528 17.2728 14.4904 17.1724C14.6281 17.0721 14.7317 16.9319 14.7874 16.7709C14.8431 16.6099 14.8481 16.4356 14.8018 16.2717L13.2776 10.9383L17.0576 7.53667C17.1787 7.42766 17.2651 7.28555 17.3063 7.12793C17.3474 6.9703 17.3415 6.80407 17.2892 6.64978C17.2369 6.4955 17.1405 6.35994 17.0119 6.25985C16.8834 6.15977 16.7283 6.09956 16.5659 6.08667L11.8151 5.70833L9.75927 1.1575C9.69372 1.01096 9.58716 0.886529 9.45245 0.799216C9.31774 0.711903 9.16063 0.665443 9.0001 0.665443C8.83957 0.665443 8.68247 0.711903 8.54776 0.799216C8.41305 0.886529 8.30649 1.01096 8.24094 1.1575L6.1851 5.70833L1.43427 6.08583C1.27465 6.09848 1.12205 6.15684 0.994732 6.25394C0.867413 6.35104 0.770764 6.48277 0.716348 6.63336C0.661931 6.78395 0.652051 6.94703 0.687891 7.10309C0.72373 7.25914 0.803771 7.40157 0.918437 7.51333L4.4301 10.9358ZM6.8076 7.33083C6.95635 7.31911 7.0992 7.2676 7.22119 7.18168C7.34318 7.09576 7.4398 6.97861 7.50094 6.8425L9.0001 3.525L10.4993 6.8425C10.5604 6.97861 10.657 7.09576 10.779 7.18168C10.901 7.2676 11.0439 7.31911 11.1926 7.33083L14.5026 7.59333L11.7768 10.0467C11.5401 10.26 11.4459 10.5883 11.5326 10.895L12.5768 14.5492L9.46344 12.4733C9.32679 12.3816 9.16593 12.3326 9.00135 12.3326C8.83678 12.3326 8.67592 12.3816 8.53927 12.4733L5.28594 14.6425L6.16094 10.8542C6.19302 10.7148 6.18871 10.5696 6.14843 10.4324C6.10815 10.2952 6.03325 10.1707 5.93094 10.0708L3.39927 7.6025L6.8076 7.33083Z" fill="white"/>
</svg>
