<svg width="15" height="18" viewBox="0 0 15 18" fill="none" xmlns="http://www.w3.org/2000/svg">
<path fill-rule="evenodd" clip-rule="evenodd" d="M9.60048 0.896055C9.09346 0.461473 8.33441 0.502146 7.87674 0.98842L0.33975 8.99647C0.121519 9.22834 0 9.53475 0 9.85317V12.1549C0 12.8452 0.559644 13.4049 1.25 13.4049H3.54289C3.87441 13.4049 4.19236 13.2732 4.42678 13.0388L12.3985 5.06701C12.9134 4.55214 12.881 3.70792 12.3281 3.23405L9.60048 0.896055ZM1.5 9.95232L8.80548 2.19025L11.147 4.19725L3.43934 11.9049H1.5V9.95232Z" fill="white"/>
<path d="M0.75 15.9049C0.335786 15.9049 0 16.2407 0 16.6549C0 17.0691 0.335786 17.4049 0.75 17.4049H14.25C14.6642 17.4049 15 17.0691 15 16.6549C15 16.2407 14.6642 15.9049 14.25 15.9049H0.75Z" fill="white"/>
</svg>
