<svg width="20" height="20" viewBox="0 0 20 20" fill="none" xmlns="http://www.w3.org/2000/svg">
<path d="M1.55544 0.000396729C1.11106 0.000396729 0.743537 0.201126 0.472121 0.472518C0.200713 0.743926 0 1.11146 0 1.55584V14.6596C0 15.102 0.200729 15.47 0.472121 15.7429C0.743688 16.0157 1.11134 16.2219 1.55544 16.222H3.77756V18.4372C3.77756 18.8795 3.97829 19.2475 4.24984 19.5205C4.52125 19.7933 4.8889 19.9994 5.33301 19.9996H18.4435C18.8851 19.9996 19.2539 19.7989 19.5268 19.5275C19.7982 19.2575 19.9985 18.8871 19.999 18.4441V18.4372V5.33341C19.999 4.88903 19.7982 4.52167 19.5268 4.25025C19.2554 3.97868 18.8879 3.77797 18.4435 3.77797H16.2214V1.55585C16.2214 1.11147 16.0205 0.743942 15.7491 0.472526C15.4777 0.201118 15.1103 0.000405432 14.6659 0.000405432L1.55544 0.000396729ZM1.55544 1.33375H14.6659C14.6659 1.33375 14.7428 1.34816 14.8048 1.41001C14.8667 1.47201 14.8881 1.55587 14.8881 1.55587V3.77799H5.33296C4.88857 3.77799 4.52121 3.97887 4.24979 4.25027C3.97838 4.52168 3.77751 4.88905 3.77751 5.33343V14.8885H1.55539C1.55121 14.8885 1.47727 14.8664 1.41651 14.8053C1.35575 14.7441 1.33327 14.6646 1.33327 14.6594V1.55569C1.33327 1.55569 1.35466 1.47183 1.41651 1.40983C1.47851 1.34799 1.55539 1.33357 1.55539 1.33357L1.55544 1.33375ZM5.33301 5.11131H18.4435C18.4435 5.11131 18.5204 5.12573 18.5824 5.18773C18.6442 5.24957 18.6656 5.33343 18.6656 5.33343V18.4439C18.6656 18.4475 18.6432 18.5222 18.5824 18.5828C18.5215 18.6433 18.4461 18.6661 18.4435 18.6661H5.33301C5.32882 18.6661 5.25504 18.6439 5.19413 18.5828C5.13337 18.5217 5.11089 18.4421 5.11089 18.437V5.3332C5.11089 5.3332 5.13228 5.24934 5.19413 5.1875C5.25613 5.1255 5.33301 5.11108 5.33301 5.11108V5.11131ZM11.3327 8.00011C9.00879 8.00011 7.1107 9.89827 7.1107 12.2221C7.1107 13.7846 7.93654 15.1802 9.22866 15.9095C9.3832 16.0096 9.57214 16.0416 9.75086 15.9977C9.92973 15.9537 10.0824 15.8377 10.1726 15.6773C10.263 15.5169 10.2828 15.3262 10.2278 15.1505C10.1726 14.9749 10.0472 14.8298 9.88137 14.7498C9.01213 14.2592 8.44402 13.3187 8.44402 12.2222C8.44402 10.6188 9.72948 9.33336 11.3328 9.33336C12.5752 9.33336 13.6236 10.1078 14.034 11.2013L13.2146 10.7499C13.0599 10.6634 12.8771 10.6419 12.7066 10.6899C12.5359 10.7381 12.3915 10.8522 12.3048 11.0069C12.2183 11.1616 12.1968 11.3444 12.245 11.515C12.2932 11.6855 12.4071 11.83 12.5618 11.9166L14.5618 13.0277C14.7171 13.1142 14.9008 13.135 15.0716 13.0854C15.2424 13.0358 15.3864 12.92 15.4714 12.7637L16.5824 10.7639C16.6612 10.6275 16.6891 10.4678 16.6613 10.3128C16.6334 10.158 16.5517 10.0179 16.4305 9.91743C16.3095 9.81684 16.1566 9.76259 15.9992 9.76398C15.879 9.76491 15.7615 9.79839 15.6588 9.8607C15.5562 9.92301 15.4722 10.012 15.4159 10.1182L15.1936 10.5208C14.5364 9.03996 13.0515 8.00021 11.3328 8.00021L11.3327 8.00011Z" fill="white"/>
</svg>
